<svg width="165" height="50" viewBox="0 0 165 50" fill="none" xmlns="http://www.w3.org/2000/svg">
<g id="Group 5">
<g id="Group 4">
<path id="Vector" d="M11.1752 17.1918C9.97079 17.1918 8.93687 17.6373 8.07343 18.5227C7.20724 19.4109 6.77552 20.4806 6.77552 21.7345C6.77552 23.0049 7.20724 24.0856 8.07343 24.9793C8.93687 25.8674 9.97079 26.3102 11.1752 26.3102C11.7527 26.3102 12.2999 26.2414 12.8141 26.1012C13.3338 25.9554 13.716 25.8097 13.958 25.6612L14.277 25.4412L16.4438 29.8739C16.2733 30.0004 16.0396 30.1544 15.7399 30.3359C15.4374 30.5119 14.7527 30.7539 13.683 31.0618C12.6106 31.3753 11.4639 31.5348 10.2403 31.5348C7.52622 31.5348 5.13939 30.5834 3.07978 28.675C1.02568 26.7611 0 24.4705 0 21.8005C0 19.1112 1.02568 16.8013 3.07978 14.871C5.13939 12.9351 7.52622 11.9672 10.2403 11.9672C11.4639 11.9672 12.5941 12.1102 13.628 12.3961C14.662 12.6821 15.3934 12.9736 15.8279 13.2651L16.4438 13.694L14.277 18.0607C13.485 17.4833 12.4511 17.1918 11.1752 17.1918Z" fill="black"/>
<path id="Vector_2" d="M15.6504 30.9958V12.5061H22.0299V15.1679H22.0959C22.1454 15.0744 22.2224 14.9562 22.3269 14.816C22.4369 14.6702 22.6706 14.4172 23.0309 14.057C23.3966 13.6995 23.7816 13.3751 24.1858 13.0891C24.5955 12.7976 25.1235 12.5364 25.7697 12.3081C26.4214 12.0827 27.0841 11.9672 27.7605 11.9672C28.4562 11.9672 29.1382 12.0634 29.8064 12.2531C30.4801 12.4456 30.9751 12.6354 31.2913 12.8251L31.7973 13.1221L29.1244 18.5227C28.3325 17.849 27.2271 17.5108 25.8137 17.5108C25.0437 17.5108 24.3783 17.6813 23.8228 18.0167C23.2729 18.355 22.8824 18.7647 22.6569 19.2487C22.4287 19.7271 22.2664 20.1341 22.1729 20.4696C22.0767 20.8078 22.0299 21.0718 22.0299 21.2615V30.9958H15.6504Z" fill="black"/>
<path id="Vector_3" d="M48.9078 22.6364H35.4997C35.4997 23.9343 35.9204 24.8968 36.7646 25.5182C37.6061 26.1424 38.519 26.4532 39.5034 26.4532C40.5374 26.4532 41.3541 26.3184 41.9563 26.0462C42.5557 25.7684 43.2432 25.2185 44.0131 24.3963L48.6218 26.7061C46.6997 29.9262 43.5017 31.5348 39.0305 31.5348C36.2422 31.5348 33.8526 30.5834 31.859 28.675C29.8626 26.7611 28.8672 24.4595 28.8672 21.7675C28.8672 19.0782 29.8626 16.7711 31.859 14.849C33.8526 12.9296 36.2422 11.9672 39.0305 11.9672C41.9618 11.9672 44.3486 12.8141 46.191 14.508C48.0306 16.2019 48.9518 18.6217 48.9518 21.7675C48.9518 22.2019 48.9353 22.4907 48.9078 22.6364ZM35.6867 19.1057H42.7152C42.5667 18.146 42.1872 17.409 41.5713 16.8948C40.9608 16.3751 40.1771 16.1139 39.2175 16.1139C38.1615 16.1139 37.3173 16.3889 36.6876 16.9388C36.0634 17.4888 35.7307 18.212 35.6867 19.1057Z" fill="black"/>
<path id="Vector_4" d="M49.8068 28.708C48.0744 26.8244 47.2109 24.5145 47.2109 21.7785C47.2109 19.0369 48.0744 16.7161 49.8068 14.816C51.5364 12.9186 53.7362 11.9672 56.4063 11.9672C58.8536 11.9672 60.8747 12.7344 62.4669 14.266V12.5061H68.8464V30.9958H62.5329V28.906H62.4669C60.8747 30.6604 58.8536 31.5348 56.4063 31.5348C53.7362 31.5348 51.5364 30.5944 49.8068 28.708ZM55.2294 18.6327C54.3989 19.4466 53.9865 20.4916 53.9865 21.7675C53.9865 23.0434 54.3824 24.0856 55.1744 24.8913C55.9718 25.6915 57.0222 26.0902 58.3202 26.0902C59.5658 26.0902 60.5915 25.6832 61.3999 24.8693C62.2056 24.0498 62.6098 23.0159 62.6098 21.7675C62.6098 20.4916 62.1946 19.4466 61.3669 18.6327C60.5365 17.8188 59.5218 17.4118 58.3202 17.4118C57.0937 17.4118 56.0653 17.8188 55.2294 18.6327Z" fill="black"/>
<path id="Vector_5" d="M70.8603 12.5062V5.62067H77.2399V12.5062H81.1336V17.3678H77.2399V23.2414C77.2399 24.9518 77.7183 25.8043 78.6808 25.8043C78.9227 25.8043 79.1757 25.7575 79.4397 25.6613C79.7037 25.5678 79.9072 25.4715 80.0557 25.3753L80.2646 25.2323L81.8485 30.3799C80.4846 31.1499 78.9227 31.5349 77.1629 31.5349C75.9667 31.5349 74.9355 31.3259 74.0721 30.9079C73.2059 30.4844 72.5487 29.918 72.1032 29.214C71.655 28.5046 71.336 27.7594 71.1463 26.9812C70.9538 26.1975 70.8603 25.3615 70.8603 24.4733V17.3678H68.1875V12.5062H70.8603Z" fill="black"/>
<path id="Vector_6" d="M81.8829 28.708C80.1505 26.8244 79.2871 24.5145 79.2871 21.7785C79.2871 19.0369 80.1505 16.7161 81.8829 14.816C83.6126 12.9186 85.8124 11.9672 88.4825 11.9672C90.9298 11.9672 92.9509 12.7344 94.543 14.266V12.5061H100.923V30.9958H94.609V28.906H94.543C92.9509 30.6604 90.9298 31.5348 88.4825 31.5348C85.8124 31.5348 83.6126 30.5944 81.8829 28.708ZM87.3055 18.6327C86.4751 19.4466 86.0626 20.4916 86.0626 21.7675C86.0626 23.0434 86.4586 24.0856 87.2505 24.8913C88.048 25.6915 89.0984 26.0902 90.3963 26.0902C91.642 26.0902 92.6677 25.6832 93.4761 24.8693C94.2818 24.0498 94.686 23.0159 94.686 21.7675C94.686 20.4916 94.2708 19.4466 93.4431 18.6327C92.6127 17.8188 91.598 17.4118 90.3963 17.4118C89.1699 17.4118 88.1415 17.8188 87.3055 18.6327Z" fill="black"/>
<path id="Vector_7" d="M101.855 30.9958V0H108.235V30.9958H101.855Z" fill="black"/>
<path id="Vector_8" d="M123.185 12.5062H130.544L116.014 40.3672H108.666L115.046 28.1141L106.279 12.5062H113.638L118.796 21.9875L123.185 12.5062Z" fill="black"/>
<path id="Vector_9" d="M136.625 11.9672C137.687 11.9672 138.732 12.0882 139.76 12.3301C140.794 12.5666 141.564 12.8031 142.07 13.0451L142.829 13.4081L140.739 17.5878C139.293 16.8178 137.923 16.4329 136.625 16.4329C135.905 16.4329 135.396 16.5153 135.096 16.6748C134.794 16.8288 134.645 17.1231 134.645 17.5548C134.645 17.651 134.656 17.7473 134.678 17.8408C134.706 17.937 134.755 18.0277 134.821 18.1157C134.893 18.1982 134.959 18.267 135.019 18.3247C135.085 18.3852 135.187 18.4512 135.327 18.5227C135.473 18.597 135.586 18.6519 135.668 18.6877C135.756 18.7262 135.894 18.7812 136.086 18.8527C136.276 18.9187 136.419 18.9709 136.515 19.0067C136.617 19.0452 136.782 19.1002 137.01 19.1717C137.236 19.2459 137.409 19.2927 137.527 19.3146C138.275 19.5346 138.924 19.7766 139.474 20.0406C140.03 20.3046 140.612 20.6648 141.223 21.1185C141.839 21.575 142.315 22.1497 142.653 22.8454C142.988 23.5439 143.159 24.3385 143.159 25.2322C143.159 29.4339 140.236 31.5348 134.392 31.5348C133.072 31.5348 131.819 31.3313 130.631 30.9298C129.443 30.5201 128.579 30.1104 128.046 29.6979L127.254 29.049L129.85 24.6933C130.048 24.8555 130.301 25.0535 130.609 25.2872C130.922 25.5155 131.489 25.8262 132.303 26.2222C133.122 26.6181 133.831 26.8161 134.425 26.8161C135.751 26.8161 136.416 26.3734 136.416 25.4852C136.416 25.0755 136.246 24.7565 135.91 24.5283C135.572 24.3028 135 24.0443 134.194 23.7583C133.386 23.4669 132.756 23.1974 132.303 22.9554C131.15 22.3559 130.237 21.6767 129.564 20.9205C128.887 20.1671 128.552 19.1607 128.552 17.9067C128.552 16.0369 129.278 14.5822 130.73 13.5401C132.187 12.4924 134.153 11.9672 136.625 11.9672Z" fill="black"/>
<path id="Vector_10" d="M143.546 2.1998C144.294 1.45185 145.185 1.07788 146.219 1.07788C147.253 1.07788 148.139 1.45185 148.881 2.1998C149.629 2.94225 150.003 3.82769 150.003 4.86162C150.003 5.89554 149.629 6.78648 148.881 7.53443C148.139 8.27688 147.253 8.64535 146.219 8.64535C145.185 8.64535 144.294 8.27688 143.546 7.53443C142.804 6.78648 142.436 5.89554 142.436 4.86162C142.436 3.82769 142.804 2.94225 143.546 2.1998ZM142.942 12.5061V30.9958H149.321V12.5061H142.942Z" fill="black"/>
<path id="Vector_11" d="M158.467 11.9672C159.528 11.9672 160.573 12.0882 161.602 12.3301C162.636 12.5666 163.406 12.8031 163.912 13.0451L164.671 13.4081L162.581 17.5878C161.134 16.8178 159.765 16.4329 158.467 16.4329C157.747 16.4329 157.238 16.5153 156.938 16.6748C156.636 16.8288 156.487 17.1231 156.487 17.5548C156.487 17.651 156.498 17.7473 156.52 17.8408C156.548 17.937 156.597 18.0277 156.663 18.1157C156.735 18.1982 156.801 18.267 156.861 18.3247C156.927 18.3852 157.029 18.4512 157.169 18.5227C157.315 18.597 157.428 18.6519 157.51 18.6877C157.598 18.7262 157.736 18.7812 157.928 18.8527C158.118 18.9187 158.261 18.9709 158.357 19.0067C158.459 19.0452 158.624 19.1002 158.852 19.1717C159.077 19.2459 159.251 19.2927 159.369 19.3146C160.117 19.5346 160.766 19.7766 161.316 20.0406C161.871 20.3046 162.454 20.6648 163.065 21.1185C163.681 21.575 164.156 22.1497 164.495 22.8454C164.83 23.5439 165.001 24.3385 165.001 25.2322C165.001 29.4339 162.078 31.5348 156.234 31.5348C154.914 31.5348 153.66 31.3313 152.472 30.9298C151.285 30.5201 150.421 30.1104 149.888 29.6979L149.096 29.049L151.692 24.6933C151.89 24.8555 152.142 25.0535 152.45 25.2872C152.764 25.5155 153.33 25.8262 154.144 26.2222C154.964 26.6181 155.673 26.8161 156.267 26.8161C157.593 26.8161 158.258 26.3734 158.258 25.4852C158.258 25.0755 158.088 24.7565 157.752 24.5283C157.414 24.3028 156.842 24.0443 156.036 23.7583C155.228 23.4669 154.598 23.1974 154.144 22.9554C152.992 22.3559 152.079 21.6767 151.406 20.9205C150.729 20.1671 150.394 19.1607 150.394 17.9067C150.394 16.0369 151.12 14.5822 152.571 13.5401C154.029 12.4924 155.995 11.9672 158.467 11.9672Z" fill="black"/>
</g>
<g id="Group 3">
<g id="Group 2">
<path id="Vector_12" d="M15.2196 44.352C15.2993 44.352 15.3626 44.3795 15.4066 44.429C15.4561 44.4812 15.4836 44.5472 15.4836 44.627V46.7828C15.4836 47.0853 15.4176 47.352 15.2856 47.5858C15.1536 47.8222 14.9694 48.0092 14.7356 48.1467C14.5074 48.2787 14.2517 48.3447 13.9657 48.3447C13.6714 48.3447 13.4075 48.2787 13.1737 48.1467C12.9372 48.0092 12.7558 47.8222 12.6238 47.5858C12.4918 47.352 12.4258 47.0853 12.4258 46.7828V44.627C12.4258 44.5472 12.4505 44.4812 12.5028 44.429C12.5605 44.3795 12.6293 44.352 12.7118 44.352C12.7833 44.352 12.8465 44.3795 12.8987 44.429C12.9565 44.4812 12.9867 44.5472 12.9867 44.627V46.7828C12.9867 46.9808 13.0307 47.1568 13.1187 47.3108C13.2067 47.4648 13.3222 47.5858 13.4707 47.6738C13.6247 47.7618 13.7897 47.8057 13.9657 47.8057C14.1417 47.8057 14.3066 47.7618 14.4606 47.6738C14.6146 47.5858 14.7356 47.4648 14.8236 47.3108C14.9171 47.1568 14.9666 46.9808 14.9666 46.7828V44.627C14.9666 44.5472 14.9886 44.4812 15.0326 44.429C15.0821 44.3795 15.1453 44.352 15.2196 44.352Z" fill="black"/>
<path id="Vector_13" d="M20.2881 45.287C20.9618 45.287 21.3001 45.6912 21.3001 46.4969V48.0258C21.3001 48.1083 21.2726 48.1743 21.2231 48.2238C21.1708 48.276 21.1076 48.3008 21.0361 48.3008C20.9536 48.3008 20.8876 48.276 20.8381 48.2238C20.7941 48.1743 20.7721 48.1083 20.7721 48.0258V46.5079C20.7721 46.2824 20.7199 46.1064 20.6181 45.9799C20.5136 45.8479 20.3486 45.782 20.1232 45.782C19.9692 45.782 19.8289 45.815 19.7052 45.8809C19.5869 45.9469 19.4907 46.0349 19.4192 46.1449C19.3532 46.2549 19.3202 46.3759 19.3202 46.5079V48.0258C19.3202 48.1083 19.2927 48.1743 19.2432 48.2238C19.191 48.276 19.125 48.3008 19.0452 48.3008C18.971 48.3008 18.9077 48.276 18.8582 48.2238C18.806 48.1743 18.7812 48.1083 18.7812 48.0258V45.617C18.7812 45.5455 18.806 45.4822 18.8582 45.43C18.9077 45.3805 18.971 45.353 19.0452 45.353C19.125 45.353 19.191 45.3805 19.2432 45.43C19.2927 45.4822 19.3202 45.5455 19.3202 45.617V45.815C19.4137 45.6692 19.5512 45.5455 19.7272 45.441C19.9032 45.3392 20.0902 45.287 20.2881 45.287Z" fill="black"/>
<path id="Vector_14" d="M25.1132 48.0258C25.1132 48.1083 25.0857 48.1743 25.0362 48.2238C24.9839 48.276 24.9207 48.3008 24.8492 48.3008C24.7667 48.3008 24.7007 48.276 24.6512 48.2238C24.599 48.1743 24.5742 48.1083 24.5742 48.0258V44.4071C24.5742 44.3273 24.599 44.2613 24.6512 44.2091C24.709 44.1596 24.775 44.1321 24.8492 44.1321C24.9207 44.1321 24.9839 44.1596 25.0362 44.2091C25.0857 44.2613 25.1132 44.3273 25.1132 44.4071V48.0258Z" fill="black"/>
<path id="Vector_15" d="M30.9847 46.7169C30.9764 46.7829 30.9462 46.8434 30.8967 46.8929C30.8445 46.9369 30.7812 46.9589 30.7097 46.9589H28.7299C28.7574 47.2311 28.8618 47.4511 29.0378 47.6188C29.2193 47.7811 29.4448 47.8608 29.7088 47.8608C29.8903 47.8608 30.0388 47.8361 30.1488 47.7838C30.2587 47.7343 30.3577 47.6628 30.4457 47.5748C30.5035 47.5473 30.5585 47.5308 30.6107 47.5308C30.6767 47.5308 30.7317 47.5528 30.7757 47.5968C30.8197 47.6408 30.8417 47.6931 30.8417 47.7508C30.8417 47.8333 30.8005 47.9048 30.7207 47.9708C30.6107 48.0808 30.4622 48.1743 30.2807 48.2458C30.1048 48.3173 29.9233 48.3558 29.7418 48.3558C29.4338 48.3558 29.1616 48.2953 28.9278 48.1688C28.6996 48.0368 28.5236 47.8581 28.3999 47.6298C28.2734 47.4043 28.2129 47.1431 28.2129 46.8489C28.2129 46.5354 28.2734 46.2604 28.3999 46.0239C28.5319 45.782 28.7024 45.6005 28.9168 45.474C29.1286 45.3502 29.3568 45.287 29.5988 45.287C29.8408 45.287 30.0663 45.3502 30.2807 45.474C30.4925 45.5922 30.6602 45.76 30.7867 45.9799C30.9104 46.1999 30.9764 46.4474 30.9847 46.7169ZM29.5988 45.782C29.3926 45.782 29.2138 45.8424 29.0598 45.9579C28.9058 46.0762 28.8013 46.2604 28.7519 46.5079H30.4127V46.4639C30.3962 46.2604 30.3082 46.0954 30.1488 45.9689C29.9865 45.8452 29.8023 45.782 29.5988 45.782Z" fill="black"/>
<path id="Vector_16" d="M36.4293 45.309C36.509 45.309 36.575 45.3365 36.6273 45.386C36.6768 45.4382 36.7043 45.5042 36.7043 45.584V48.0258C36.7043 48.1083 36.6768 48.1743 36.6273 48.2238C36.575 48.276 36.509 48.3008 36.4293 48.3008C36.3468 48.3008 36.2808 48.276 36.2313 48.2238C36.1873 48.1743 36.1653 48.1083 36.1653 48.0258V47.8828C36.0691 48.0148 35.9343 48.1303 35.7583 48.2238C35.5878 48.3118 35.4091 48.3558 35.2194 48.3558C34.9609 48.3558 34.7272 48.2898 34.5154 48.1578C34.3092 48.0258 34.1469 47.8443 34.0315 47.6078C33.9132 47.3741 33.8555 47.1101 33.8555 46.8159C33.8555 46.5244 33.9132 46.2604 34.0315 46.0239C34.1469 45.7902 34.3092 45.6115 34.5154 45.485C34.7272 45.353 34.9554 45.287 35.1974 45.287C35.3954 45.287 35.5768 45.3282 35.7473 45.408C35.9233 45.4905 36.0608 45.595 36.1653 45.727V45.584C36.1653 45.5042 36.1873 45.4382 36.2313 45.386C36.2808 45.3365 36.3468 45.309 36.4293 45.309ZM35.2854 47.8608C35.4614 47.8608 35.6153 47.8168 35.7473 47.7288C35.8848 47.6353 35.9921 47.5088 36.0663 47.3548C36.1461 47.1954 36.1873 47.0139 36.1873 46.8159C36.1873 46.6261 36.1461 46.4529 36.0663 46.2989C35.9921 46.1394 35.8848 46.0129 35.7473 45.9249C35.6153 45.8314 35.4614 45.782 35.2854 45.782C35.1011 45.782 34.9389 45.8259 34.8014 45.9139C34.6694 46.0019 34.5622 46.1284 34.4824 46.2879C34.4082 46.4419 34.3724 46.6179 34.3724 46.8159C34.3724 47.0139 34.4082 47.1954 34.4824 47.3548C34.5622 47.5088 34.6694 47.6353 34.8014 47.7288C34.9389 47.8168 35.1011 47.8608 35.2854 47.8608Z" fill="black"/>
<path id="Vector_17" d="M39.7562 47.8388C39.7177 47.7893 39.7012 47.7371 39.7012 47.6848C39.7012 47.6133 39.7397 47.5501 39.8222 47.4978C39.8579 47.4703 39.9019 47.4538 39.9542 47.4538C40.0201 47.4538 40.0806 47.4841 40.1411 47.5418C40.2511 47.6683 40.3666 47.7618 40.4931 47.8278C40.6251 47.8938 40.7818 47.9268 40.9661 47.9268C41.1118 47.9213 41.2356 47.8883 41.3401 47.8278C41.45 47.7618 41.505 47.6601 41.505 47.5198C41.505 47.3961 41.45 47.2998 41.3401 47.2339C41.2301 47.1679 41.0678 47.1074 40.8561 47.0469C40.6416 46.9891 40.4656 46.9314 40.3281 46.8709C40.1879 46.8049 40.0696 46.7141 39.9762 46.5959C39.8799 46.4804 39.8332 46.3264 39.8332 46.1339C39.8332 45.9662 39.8799 45.8204 39.9762 45.694C40.0696 45.562 40.1989 45.463 40.3611 45.397C40.5206 45.3255 40.6939 45.287 40.8781 45.287C41.0596 45.287 41.2411 45.32 41.4171 45.386C41.5985 45.452 41.747 45.5565 41.857 45.694C41.901 45.7462 41.923 45.8012 41.923 45.8589C41.923 45.9194 41.8928 45.9772 41.835 46.0349C41.7965 46.0652 41.7498 46.0789 41.692 46.0789C41.626 46.0789 41.571 46.0569 41.527 46.0129C41.4528 45.9249 41.3566 45.8589 41.2411 45.815C41.1228 45.7655 40.9936 45.738 40.8561 45.738C40.7158 45.738 40.5949 45.7682 40.4931 45.8259C40.3969 45.8782 40.3501 45.9744 40.3501 46.1119C40.3501 46.2439 40.4051 46.3429 40.5151 46.4089C40.6251 46.4749 40.7956 46.5382 41.0321 46.5959C41.2301 46.6481 41.3951 46.7031 41.527 46.7609C41.659 46.8214 41.769 46.9121 41.857 47.0359C41.945 47.1541 41.989 47.3081 41.989 47.4978C41.989 47.6738 41.9368 47.8278 41.835 47.9598C41.7388 48.0863 41.6068 48.1853 41.439 48.2568C41.2768 48.3228 41.1036 48.3558 40.9221 48.3558C40.6856 48.3558 40.4656 48.3145 40.2621 48.2348C40.0641 48.155 39.8937 48.023 39.7562 47.8388Z" fill="black"/>
<path id="Vector_18" d="M46.5149 45.298C47.1749 45.298 47.5048 45.7105 47.5048 46.5299V48.0258C47.5048 48.1083 47.4773 48.1743 47.4278 48.2238C47.3756 48.276 47.3124 48.3008 47.2409 48.3008C47.1584 48.3008 47.0924 48.276 47.0429 48.2238C46.9906 48.1743 46.9659 48.1083 46.9659 48.0258V46.5299C46.9659 46.0404 46.7596 45.793 46.3499 45.793C46.1299 45.793 45.9457 45.8672 45.8 46.0129C45.6515 46.1532 45.58 46.3264 45.58 46.5299V48.0258C45.58 48.1083 45.5525 48.1743 45.503 48.2238C45.4507 48.276 45.3847 48.3008 45.305 48.3008C45.2308 48.3008 45.1675 48.276 45.118 48.2238C45.0658 48.1743 45.041 48.1083 45.041 48.0258V44.4071C45.041 44.3273 45.0658 44.2613 45.118 44.2091C45.1675 44.1596 45.2308 44.1321 45.305 44.1321C45.3847 44.1321 45.4507 44.1596 45.503 44.2091C45.5525 44.2613 45.58 44.3273 45.58 44.4071V45.826C45.6735 45.6802 45.8055 45.5565 45.9759 45.452C46.1437 45.3502 46.3224 45.298 46.5149 45.298Z" fill="black"/>
<path id="Vector_19" d="M51.2399 48.0259C51.2399 48.1084 51.2124 48.1744 51.1629 48.2239C51.1189 48.2761 51.0557 48.3009 50.9759 48.3009C50.9017 48.3009 50.8385 48.2761 50.789 48.2239C50.7367 48.1744 50.712 48.1084 50.712 48.0259V45.5951C50.712 45.5153 50.7367 45.4493 50.789 45.3971C50.8385 45.3476 50.9017 45.3201 50.9759 45.3201C51.0557 45.3201 51.1189 45.3476 51.1629 45.3971C51.2124 45.4493 51.2399 45.5153 51.2399 45.5951V48.0259ZM50.9759 44.9461C50.866 44.9461 50.7835 44.9296 50.734 44.8911C50.69 44.8554 50.668 44.7921 50.668 44.7041V44.6161C50.668 44.5226 50.6927 44.4567 50.745 44.4182C50.7945 44.3824 50.8715 44.3632 50.9759 44.3632C51.0859 44.3632 51.1629 44.3852 51.2069 44.4292C51.2509 44.4677 51.2729 44.5281 51.2729 44.6161V44.7041C51.2729 44.7921 51.2454 44.8554 51.1959 44.8911C51.1519 44.9296 51.0777 44.9461 50.9759 44.9461Z" fill="black"/>
<path id="Vector_20" d="M55.9522 45.287C56.6259 45.287 56.9641 45.6912 56.9641 46.4969V48.0258C56.9641 48.1083 56.9366 48.1743 56.8871 48.2238C56.8349 48.276 56.7716 48.3008 56.7002 48.3008C56.6177 48.3008 56.5517 48.276 56.5022 48.2238C56.4582 48.1743 56.4362 48.1083 56.4362 48.0258V46.5079C56.4362 46.2824 56.3839 46.1064 56.2822 45.9799C56.1777 45.8479 56.0127 45.782 55.7872 45.782C55.6332 45.782 55.493 45.815 55.3692 45.8809C55.251 45.9469 55.1548 46.0349 55.0833 46.1449C55.0173 46.2549 54.9843 46.3759 54.9843 46.5079V48.0258C54.9843 48.1083 54.9568 48.1743 54.9073 48.2238C54.855 48.276 54.789 48.3008 54.7093 48.3008C54.635 48.3008 54.5718 48.276 54.5223 48.2238C54.4701 48.1743 54.4453 48.1083 54.4453 48.0258V45.617C54.4453 45.5455 54.4701 45.4822 54.5223 45.43C54.5718 45.3805 54.635 45.353 54.7093 45.353C54.789 45.353 54.855 45.3805 54.9073 45.43C54.9568 45.4822 54.9843 45.5455 54.9843 45.617V45.815C55.0778 45.6692 55.2153 45.5455 55.3912 45.441C55.5672 45.3392 55.7542 45.287 55.9522 45.287Z" fill="black"/>
<path id="Vector_21" d="M62.6684 45.309C62.7399 45.309 62.8031 45.3365 62.8554 45.386C62.9049 45.4382 62.9324 45.5042 62.9324 45.584V48.0588C62.9324 48.3668 62.8664 48.6225 62.7344 48.8287C62.6079 49.0322 62.4319 49.1835 62.2064 49.2797C61.9864 49.3732 61.739 49.4227 61.4695 49.4227C61.3155 49.4227 61.134 49.3952 60.9305 49.3457C60.7325 49.2935 60.606 49.2385 60.5565 49.1807C60.4383 49.1202 60.3806 49.0487 60.3806 48.9607C60.3806 48.9387 60.3861 48.9085 60.4026 48.8727C60.4383 48.7765 60.507 48.7297 60.6115 48.7297C60.6555 48.7297 60.705 48.7407 60.7655 48.7627C61.0653 48.8782 61.299 48.9387 61.4695 48.9387C61.7692 48.9387 62.0002 48.8645 62.1624 48.7187C62.3219 48.5703 62.4044 48.3723 62.4044 48.1248V47.8168C62.3219 47.9653 62.1872 48.0918 61.9974 48.2018C61.8132 48.3035 61.618 48.3558 61.4145 48.3558C61.156 48.3558 60.9195 48.2898 60.6995 48.1578C60.485 48.0258 60.3173 47.8443 60.1936 47.6078C60.0753 47.3741 60.0176 47.1101 60.0176 46.8159C60.0176 46.5244 60.0753 46.2604 60.1936 46.0239C60.3173 45.7902 60.485 45.6115 60.6995 45.485C60.9113 45.353 61.145 45.287 61.4035 45.287C61.607 45.287 61.7995 45.3365 61.9754 45.43C62.1569 45.518 62.2999 45.6335 62.4044 45.771V45.584C62.4044 45.5042 62.4264 45.4382 62.4704 45.386C62.5199 45.3365 62.5859 45.309 62.6684 45.309ZM61.4805 47.8608C61.662 47.8608 61.8242 47.8168 61.9644 47.7288C62.1102 47.6408 62.2229 47.5171 62.3054 47.3548C62.3852 47.1954 62.4264 47.0139 62.4264 46.8159C62.4264 46.6179 62.3852 46.4419 62.3054 46.2879C62.2229 46.1284 62.1102 46.0019 61.9644 45.9139C61.8242 45.8259 61.662 45.782 61.4805 45.782C61.2962 45.782 61.1312 45.8259 60.9855 45.9139C60.8453 46.0019 60.7353 46.1284 60.6555 46.2879C60.573 46.4502 60.5345 46.6261 60.5345 46.8159C60.5345 47.0139 60.573 47.1954 60.6555 47.3548C60.7353 47.5088 60.8453 47.6353 60.9855 47.7288C61.1312 47.8168 61.2962 47.8608 61.4805 47.8608Z" fill="black"/>
<path id="Vector_22" d="M73.0338 44.5941C73.1218 44.6381 73.1658 44.7123 73.1658 44.8141C73.1658 44.8801 73.1438 44.9433 73.0998 45.001C73.0558 45.0615 72.9926 45.089 72.9128 45.089C72.8606 45.089 72.8083 45.078 72.7589 45.056C72.5306 44.924 72.2804 44.8581 72.0109 44.8581C71.7249 44.8581 71.4747 44.9213 71.263 45.045C71.0485 45.1633 70.8807 45.3365 70.757 45.562C70.6388 45.782 70.581 46.0405 70.581 46.332C70.581 46.6399 70.6415 46.9094 70.768 47.1349C70.8917 47.3631 71.0595 47.5364 71.274 47.6519C71.4939 47.7701 71.7387 47.8278 72.0109 47.8278C72.2886 47.8278 72.5389 47.7619 72.7589 47.6299C72.8083 47.6024 72.8606 47.5859 72.9128 47.5859C72.9926 47.5859 73.0586 47.6189 73.1108 47.6849C73.1548 47.7454 73.1768 47.8058 73.1768 47.8718C73.1768 47.9158 73.1603 47.9571 73.1328 47.9928C73.1108 48.0313 73.0778 48.0643 73.0338 48.0918C72.8936 48.1743 72.7314 48.2403 72.5499 48.2898C72.3656 48.3338 72.1869 48.3558 72.0109 48.3558C71.6424 48.3558 71.307 48.2761 70.999 48.1138C70.6965 47.9543 70.4545 47.7179 70.273 47.4099C70.0888 47.1019 69.998 46.7444 69.998 46.332C69.998 45.9525 70.086 45.6115 70.262 45.309C70.438 45.001 70.6745 44.7591 70.977 44.5831C71.285 44.4071 71.6287 44.3191 72.0109 44.3191C72.3684 44.3191 72.7094 44.4126 73.0338 44.5941Z" fill="black"/>
<path id="Vector_23" d="M77.6516 45.287C77.7451 45.287 77.8304 45.3145 77.9046 45.364C77.9761 45.408 78.0146 45.4712 78.0146 45.551C78.0146 45.639 77.9871 45.7105 77.9376 45.76C77.8936 45.804 77.8386 45.8259 77.7726 45.8259C77.7341 45.8259 77.6846 45.815 77.6186 45.793C77.5361 45.7655 77.4756 45.749 77.4316 45.749C77.3134 45.749 77.2007 45.7902 77.0907 45.8699C76.9807 45.9524 76.8872 46.0624 76.8157 46.1999C76.7497 46.3402 76.7167 46.4969 76.7167 46.6729V48.0258C76.7167 48.1083 76.6892 48.1743 76.6397 48.2238C76.5875 48.276 76.5215 48.3008 76.4417 48.3008C76.3675 48.3008 76.3042 48.276 76.2547 48.2238C76.2025 48.1743 76.1777 48.1083 76.1777 48.0258V45.617C76.1777 45.5455 76.2025 45.4822 76.2547 45.43C76.3042 45.3805 76.3675 45.353 76.4417 45.353C76.5215 45.353 76.5875 45.3805 76.6397 45.43C76.6892 45.4822 76.7167 45.5455 76.7167 45.617V45.9029C76.7964 45.7215 76.9174 45.573 77.0797 45.463C77.2474 45.3475 77.4371 45.287 77.6516 45.287Z" fill="black"/>
<path id="Vector_24" d="M83.5316 46.7169C83.5233 46.7829 83.4931 46.8434 83.4436 46.8929C83.3913 46.9369 83.3281 46.9589 83.2566 46.9589H81.2767C81.3042 47.2311 81.4087 47.4511 81.5847 47.6188C81.7662 47.7811 81.9917 47.8608 82.2557 47.8608C82.4371 47.8608 82.5856 47.8361 82.6956 47.7838C82.8056 47.7343 82.9046 47.6628 82.9926 47.5748C83.0504 47.5473 83.1053 47.5308 83.1576 47.5308C83.2236 47.5308 83.2786 47.5528 83.3226 47.5968C83.3666 47.6408 83.3886 47.6931 83.3886 47.7508C83.3886 47.8333 83.3473 47.9048 83.2676 47.9708C83.1576 48.0808 83.0091 48.1743 82.8276 48.2458C82.6516 48.3173 82.4701 48.3558 82.2887 48.3558C81.9807 48.3558 81.7084 48.2953 81.4747 48.1688C81.2465 48.0368 81.0705 47.8581 80.9468 47.6298C80.8203 47.4043 80.7598 47.1431 80.7598 46.8489C80.7598 46.5354 80.8203 46.2604 80.9468 46.0239C81.0787 45.782 81.2492 45.6005 81.4637 45.474C81.6755 45.3502 81.9037 45.287 82.1457 45.287C82.3877 45.287 82.6131 45.3502 82.8276 45.474C83.0394 45.5922 83.2071 45.76 83.3336 45.9799C83.4573 46.1999 83.5233 46.4474 83.5316 46.7169ZM82.1457 45.782C81.9394 45.782 81.7607 45.8424 81.6067 45.9579C81.4527 46.0762 81.3482 46.2604 81.2987 46.5079H82.9596V46.4639C82.9431 46.2604 82.8551 46.0954 82.6956 45.9689C82.5334 45.8452 82.3492 45.782 82.1457 45.782Z" fill="black"/>
<path id="Vector_25" d="M88.9762 45.309C89.0559 45.309 89.1219 45.3365 89.1741 45.386C89.2236 45.4382 89.2511 45.5042 89.2511 45.584V48.0258C89.2511 48.1083 89.2236 48.1743 89.1741 48.2238C89.1219 48.276 89.0559 48.3008 88.9762 48.3008C88.8937 48.3008 88.8277 48.276 88.7782 48.2238C88.7342 48.1743 88.7122 48.1083 88.7122 48.0258V47.8828C88.6159 48.0148 88.4812 48.1303 88.3052 48.2238C88.1347 48.3118 87.956 48.3558 87.7662 48.3558C87.5078 48.3558 87.274 48.2898 87.0623 48.1578C86.8561 48.0258 86.6938 47.8443 86.5783 47.6078C86.4601 47.3741 86.4023 47.1101 86.4023 46.8159C86.4023 46.5244 86.4601 46.2604 86.5783 46.0239C86.6938 45.7902 86.8561 45.6115 87.0623 45.485C87.274 45.353 87.5023 45.287 87.7442 45.287C87.9422 45.287 88.1237 45.3282 88.2942 45.408C88.4702 45.4905 88.6077 45.595 88.7122 45.727V45.584C88.7122 45.5042 88.7342 45.4382 88.7782 45.386C88.8277 45.3365 88.8937 45.309 88.9762 45.309ZM87.8322 47.8608C88.0082 47.8608 88.1622 47.8168 88.2942 47.7288C88.4317 47.6353 88.5389 47.5088 88.6132 47.3548C88.6929 47.1954 88.7342 47.0139 88.7342 46.8159C88.7342 46.6261 88.6929 46.4529 88.6132 46.2989C88.5389 46.1394 88.4317 46.0129 88.2942 45.9249C88.1622 45.8314 88.0082 45.782 87.8322 45.782C87.648 45.782 87.4858 45.8259 87.3483 45.9139C87.2163 46.0019 87.109 46.1284 87.0293 46.2879C86.9551 46.4419 86.9193 46.6179 86.9193 46.8159C86.9193 47.0139 86.9551 47.1954 87.0293 47.3548C87.109 47.5088 87.2163 47.6353 87.3483 47.7288C87.4858 47.8168 87.648 47.8608 87.8322 47.8608Z" fill="black"/>
<path id="Vector_26" d="M93.273 45.8699V47.5528C93.273 47.7453 93.3555 47.8388 93.526 47.8388C93.5535 47.8388 93.592 47.8333 93.636 47.8168C93.68 47.803 93.7157 47.7948 93.746 47.7948C93.79 47.7948 93.8257 47.8168 93.856 47.8608C93.8917 47.8993 93.911 47.9488 93.911 48.0148C93.911 48.0973 93.867 48.166 93.779 48.2238C93.691 48.276 93.5865 48.3007 93.471 48.3007C93.3528 48.3007 93.24 48.2897 93.13 48.2677C93.0255 48.2402 92.9348 48.1743 92.8551 48.0698C92.7726 47.9598 92.7341 47.7948 92.7341 47.5748V45.8699H92.4151C92.3408 45.8699 92.2776 45.8479 92.2281 45.8039C92.1841 45.7599 92.1621 45.7022 92.1621 45.6279C92.1621 45.5564 92.1841 45.4959 92.2281 45.4519C92.2776 45.4079 92.3408 45.3859 92.4151 45.3859H92.7341V44.913C92.7341 44.8415 92.7588 44.7782 92.8111 44.726C92.8606 44.6682 92.9266 44.638 93.009 44.638C93.0805 44.638 93.1438 44.6682 93.196 44.726C93.2455 44.7782 93.273 44.8415 93.273 44.913V45.3859H93.746C93.812 45.3859 93.867 45.4134 93.911 45.4629C93.9605 45.5069 93.988 45.5619 93.988 45.6279C93.988 45.7022 93.9605 45.7599 93.911 45.8039C93.867 45.8479 93.812 45.8699 93.746 45.8699H93.273Z" fill="black"/>
<path id="Vector_27" d="M97.5485 48.0259C97.5485 48.1084 97.521 48.1744 97.4715 48.2239C97.4275 48.2761 97.3643 48.3009 97.2845 48.3009C97.2103 48.3009 97.1471 48.2761 97.0976 48.2239C97.0453 48.1744 97.0206 48.1084 97.0206 48.0259V45.5951C97.0206 45.5153 97.0453 45.4493 97.0976 45.3971C97.1471 45.3476 97.2103 45.3201 97.2845 45.3201C97.3643 45.3201 97.4275 45.3476 97.4715 45.3971C97.521 45.4493 97.5485 45.5153 97.5485 45.5951V48.0259ZM97.2845 44.9461C97.1745 44.9461 97.0921 44.9296 97.0426 44.8911C96.9986 44.8554 96.9766 44.7921 96.9766 44.7041V44.6161C96.9766 44.5226 97.0013 44.4567 97.0536 44.4182C97.1031 44.3824 97.18 44.3632 97.2845 44.3632C97.3945 44.3632 97.4715 44.3852 97.5155 44.4292C97.5595 44.4677 97.5815 44.5281 97.5815 44.6161V44.7041C97.5815 44.7921 97.554 44.8554 97.5045 44.8911C97.4605 44.9296 97.3863 44.9461 97.2845 44.9461Z" fill="black"/>
<path id="Vector_28" d="M103.009 45.3199C103.08 45.3199 103.141 45.3474 103.185 45.3969C103.234 45.4409 103.262 45.4959 103.262 45.5619C103.262 45.5922 103.251 45.6362 103.229 45.6939L102.151 48.1358C102.129 48.1797 102.096 48.2182 102.052 48.2457C102.013 48.276 101.969 48.2952 101.92 48.3007C101.859 48.3062 101.804 48.298 101.755 48.2677C101.703 48.2402 101.667 48.1962 101.645 48.1358L100.567 45.6939C100.55 45.6444 100.545 45.6004 100.545 45.5619C100.545 45.4959 100.567 45.4409 100.611 45.3969C100.66 45.3474 100.726 45.3199 100.809 45.3199C100.867 45.3199 100.919 45.3364 100.963 45.3639C101.007 45.3942 101.043 45.4382 101.073 45.4959L101.92 47.4648L102.767 45.4959C102.816 45.3804 102.899 45.3199 103.009 45.3199Z" fill="black"/>
<path id="Vector_29" d="M108.869 46.7169C108.861 46.7829 108.831 46.8434 108.781 46.8929C108.729 46.9369 108.666 46.9589 108.594 46.9589H106.615C106.642 47.2311 106.747 47.4511 106.923 47.6188C107.104 47.7811 107.33 47.8608 107.594 47.8608C107.775 47.8608 107.924 47.8361 108.034 47.7838C108.144 47.7343 108.243 47.6628 108.33 47.5748C108.388 47.5473 108.443 47.5308 108.495 47.5308C108.561 47.5308 108.616 47.5528 108.66 47.5968C108.704 47.6408 108.726 47.6931 108.726 47.7508C108.726 47.8333 108.685 47.9048 108.605 47.9708C108.495 48.0808 108.347 48.1743 108.166 48.2458C107.99 48.3173 107.808 48.3558 107.627 48.3558C107.319 48.3558 107.046 48.2953 106.813 48.1688C106.584 48.0368 106.408 47.8581 106.285 47.6298C106.158 47.4043 106.098 47.1431 106.098 46.8489C106.098 46.5354 106.158 46.2604 106.285 46.0239C106.417 45.782 106.587 45.6005 106.802 45.474C107.013 45.3502 107.242 45.287 107.484 45.287C107.726 45.287 107.951 45.3502 108.166 45.474C108.377 45.5922 108.545 45.76 108.671 45.9799C108.795 46.1999 108.861 46.4474 108.869 46.7169ZM107.484 45.782C107.277 45.782 107.099 45.8424 106.945 45.9579C106.791 46.0762 106.686 46.2604 106.637 46.5079H108.298V46.4639C108.281 46.2604 108.193 46.0954 108.034 45.9689C107.871 45.8452 107.687 45.782 107.484 45.782Z" fill="black"/>
<path id="Vector_30" d="M116.538 48.0258C116.538 48.1083 116.507 48.1743 116.45 48.2238C116.397 48.276 116.334 48.3008 116.263 48.3008C116.175 48.3008 116.103 48.276 116.054 48.2238C116.001 48.1743 115.977 48.1083 115.977 48.0258V44.627C115.977 44.5555 116.001 44.4923 116.054 44.44C116.111 44.3905 116.18 44.363 116.263 44.363C116.334 44.363 116.397 44.3905 116.45 44.44C116.507 44.4923 116.538 44.5555 116.538 44.627V48.0258Z" fill="black"/>
<path id="Vector_31" d="M121.341 45.287C122.015 45.287 122.353 45.6912 122.353 46.4969V48.0258C122.353 48.1083 122.325 48.1743 122.276 48.2238C122.224 48.276 122.16 48.3008 122.089 48.3008C122.006 48.3008 121.94 48.276 121.891 48.2238C121.847 48.1743 121.825 48.1083 121.825 48.0258V46.5079C121.825 46.2824 121.773 46.1064 121.671 45.9799C121.566 45.8479 121.401 45.782 121.176 45.782C121.022 45.782 120.882 45.815 120.758 45.8809C120.64 45.9469 120.543 46.0349 120.472 46.1449C120.406 46.2549 120.373 46.3759 120.373 46.5079V48.0258C120.373 48.1083 120.345 48.1743 120.296 48.2238C120.244 48.276 120.178 48.3008 120.098 48.3008C120.024 48.3008 119.96 48.276 119.911 48.2238C119.859 48.1743 119.834 48.1083 119.834 48.0258V45.617C119.834 45.5455 119.859 45.4822 119.911 45.43C119.96 45.3805 120.024 45.353 120.098 45.353C120.178 45.353 120.244 45.3805 120.296 45.43C120.345 45.4822 120.373 45.5455 120.373 45.617V45.815C120.466 45.6692 120.604 45.5455 120.78 45.441C120.956 45.3392 121.143 45.287 121.341 45.287Z" fill="black"/>
<path id="Vector_32" d="M125.42 47.8388C125.382 47.7893 125.365 47.7371 125.365 47.6848C125.365 47.6133 125.404 47.5501 125.486 47.4978C125.522 47.4703 125.566 47.4538 125.618 47.4538C125.684 47.4538 125.745 47.4841 125.805 47.5418C125.915 47.6683 126.031 47.7618 126.157 47.8278C126.289 47.8938 126.446 47.9268 126.63 47.9268C126.776 47.9213 126.9 47.8883 127.004 47.8278C127.114 47.7618 127.169 47.6601 127.169 47.5198C127.169 47.3961 127.114 47.2998 127.004 47.2339C126.894 47.1679 126.732 47.1074 126.52 47.0469C126.306 46.9891 126.13 46.9314 125.992 46.8709C125.852 46.8049 125.734 46.7141 125.64 46.5959C125.544 46.4804 125.497 46.3264 125.497 46.1339C125.497 45.9662 125.544 45.8204 125.64 45.694C125.734 45.562 125.863 45.463 126.025 45.397C126.185 45.3255 126.358 45.287 126.542 45.287C126.724 45.287 126.905 45.32 127.081 45.386C127.263 45.452 127.411 45.5565 127.521 45.694C127.565 45.7462 127.587 45.8012 127.587 45.8589C127.587 45.9194 127.557 45.9772 127.499 46.0349C127.461 46.0652 127.414 46.0789 127.356 46.0789C127.29 46.0789 127.235 46.0569 127.191 46.0129C127.117 45.9249 127.021 45.8589 126.905 45.815C126.787 45.7655 126.658 45.738 126.52 45.738C126.38 45.738 126.259 45.7682 126.157 45.8259C126.061 45.8782 126.014 45.9744 126.014 46.1119C126.014 46.2439 126.069 46.3429 126.179 46.4089C126.289 46.4749 126.46 46.5382 126.696 46.5959C126.894 46.6481 127.059 46.7031 127.191 46.7609C127.323 46.8214 127.433 46.9121 127.521 47.0359C127.609 47.1541 127.653 47.3081 127.653 47.4978C127.653 47.6738 127.601 47.8278 127.499 47.9598C127.403 48.0863 127.271 48.1853 127.103 48.2568C126.941 48.3228 126.768 48.3558 126.586 48.3558C126.35 48.3558 126.13 48.3145 125.926 48.2348C125.728 48.155 125.558 48.023 125.42 47.8388Z" fill="black"/>
<path id="Vector_33" d="M131.209 48.0259C131.209 48.1084 131.181 48.1744 131.132 48.2239C131.088 48.2761 131.024 48.3009 130.945 48.3009C130.87 48.3009 130.807 48.2761 130.758 48.2239C130.705 48.1744 130.681 48.1084 130.681 48.0259V45.5951C130.681 45.5153 130.705 45.4493 130.758 45.3971C130.807 45.3476 130.87 45.3201 130.945 45.3201C131.024 45.3201 131.088 45.3476 131.132 45.3971C131.181 45.4493 131.209 45.5153 131.209 45.5951V48.0259ZM130.945 44.9461C130.835 44.9461 130.752 44.9296 130.703 44.8911C130.659 44.8554 130.637 44.7921 130.637 44.7041V44.6161C130.637 44.5226 130.661 44.4567 130.714 44.4182C130.763 44.3824 130.84 44.3632 130.945 44.3632C131.055 44.3632 131.132 44.3852 131.176 44.4292C131.22 44.4677 131.242 44.5281 131.242 44.6161V44.7041C131.242 44.7921 131.214 44.8554 131.165 44.8911C131.121 44.9296 131.046 44.9461 130.945 44.9461Z" fill="black"/>
<path id="Vector_34" d="M136.889 45.309C136.961 45.309 137.024 45.3365 137.076 45.386C137.126 45.4382 137.153 45.5042 137.153 45.584V48.0588C137.153 48.3668 137.087 48.6225 136.955 48.8287C136.829 49.0322 136.653 49.1835 136.427 49.2797C136.207 49.3732 135.96 49.4227 135.69 49.4227C135.536 49.4227 135.355 49.3952 135.151 49.3457C134.953 49.2935 134.827 49.2385 134.777 49.1807C134.659 49.1202 134.601 49.0487 134.601 48.9607C134.601 48.9387 134.607 48.9085 134.623 48.8727C134.659 48.7765 134.728 48.7297 134.832 48.7297C134.876 48.7297 134.926 48.7407 134.986 48.7627C135.286 48.8782 135.52 48.9387 135.69 48.9387C135.99 48.9387 136.221 48.8645 136.383 48.7187C136.543 48.5703 136.625 48.3723 136.625 48.1248V47.8168C136.543 47.9653 136.408 48.0918 136.218 48.2018C136.034 48.3035 135.839 48.3558 135.635 48.3558C135.377 48.3558 135.14 48.2898 134.92 48.1578C134.706 48.0258 134.538 47.8443 134.414 47.6078C134.296 47.3741 134.238 47.1101 134.238 46.8159C134.238 46.5244 134.296 46.2604 134.414 46.0239C134.538 45.7902 134.706 45.6115 134.92 45.485C135.132 45.353 135.366 45.287 135.624 45.287C135.828 45.287 136.02 45.3365 136.196 45.43C136.378 45.518 136.521 45.6335 136.625 45.771V45.584C136.625 45.5042 136.647 45.4382 136.691 45.386C136.741 45.3365 136.807 45.309 136.889 45.309ZM135.701 47.8608C135.883 47.8608 136.045 47.8168 136.185 47.7288C136.331 47.6408 136.444 47.5171 136.526 47.3548C136.606 47.1954 136.647 47.0139 136.647 46.8159C136.647 46.6179 136.606 46.4419 136.526 46.2879C136.444 46.1284 136.331 46.0019 136.185 45.9139C136.045 45.8259 135.883 45.782 135.701 45.782C135.517 45.782 135.352 45.8259 135.206 45.9139C135.066 46.0019 134.956 46.1284 134.876 46.2879C134.794 46.4502 134.755 46.6261 134.755 46.8159C134.755 47.0139 134.794 47.1954 134.876 47.3548C134.956 47.5088 135.066 47.6353 135.206 47.7288C135.352 47.8168 135.517 47.8608 135.701 47.8608Z" fill="black"/>
<path id="Vector_35" d="M141.853 45.298C142.513 45.298 142.843 45.7105 142.843 46.5299V48.0258C142.843 48.1083 142.815 48.1743 142.766 48.2238C142.713 48.276 142.65 48.3008 142.579 48.3008C142.496 48.3008 142.43 48.276 142.381 48.2238C142.329 48.1743 142.304 48.1083 142.304 48.0258V46.5299C142.304 46.0404 142.098 45.793 141.688 45.793C141.468 45.793 141.284 45.8672 141.138 46.0129C140.989 46.1532 140.918 46.3264 140.918 46.5299V48.0258C140.918 48.1083 140.89 48.1743 140.841 48.2238C140.789 48.276 140.723 48.3008 140.643 48.3008C140.569 48.3008 140.505 48.276 140.456 48.2238C140.404 48.1743 140.379 48.1083 140.379 48.0258V44.4071C140.379 44.3273 140.404 44.2613 140.456 44.2091C140.505 44.1596 140.569 44.1321 140.643 44.1321C140.723 44.1321 140.789 44.1596 140.841 44.2091C140.89 44.2613 140.918 44.3273 140.918 44.4071V45.826C141.011 45.6802 141.143 45.5565 141.314 45.452C141.482 45.3502 141.66 45.298 141.853 45.298Z" fill="black"/>
<path id="Vector_36" d="M146.875 45.8699V47.5528C146.875 47.7453 146.957 47.8388 147.128 47.8388C147.155 47.8388 147.194 47.8333 147.238 47.8168C147.282 47.803 147.317 47.7948 147.348 47.7948C147.392 47.7948 147.427 47.8168 147.458 47.8608C147.493 47.8993 147.513 47.9488 147.513 48.0148C147.513 48.0973 147.469 48.166 147.381 48.2238C147.293 48.276 147.188 48.3007 147.073 48.3007C146.954 48.3007 146.842 48.2897 146.732 48.2677C146.627 48.2402 146.536 48.1743 146.457 48.0698C146.374 47.9598 146.336 47.7948 146.336 47.5748V45.8699H146.017C145.942 45.8699 145.879 45.8479 145.83 45.8039C145.786 45.7599 145.764 45.7022 145.764 45.6279C145.764 45.5564 145.786 45.4959 145.83 45.4519C145.879 45.4079 145.942 45.3859 146.017 45.3859H146.336V44.913C146.336 44.8415 146.36 44.7782 146.413 44.726C146.462 44.6682 146.528 44.638 146.611 44.638C146.682 44.638 146.745 44.6682 146.798 44.726C146.847 44.7782 146.875 44.8415 146.875 44.913V45.3859H147.348C147.414 45.3859 147.469 45.4134 147.513 45.4629C147.562 45.5069 147.59 45.5619 147.59 45.6279C147.59 45.7022 147.562 45.7599 147.513 45.8039C147.469 45.8479 147.414 45.8699 147.348 45.8699H146.875Z" fill="black"/>
<path id="Vector_37" d="M150.479 47.8388C150.44 47.7893 150.424 47.7371 150.424 47.6848C150.424 47.6133 150.462 47.5501 150.545 47.4978C150.581 47.4703 150.625 47.4538 150.677 47.4538C150.743 47.4538 150.803 47.4841 150.864 47.5418C150.974 47.6683 151.089 47.7618 151.216 47.8278C151.348 47.8938 151.505 47.9268 151.689 47.9268C151.834 47.9213 151.958 47.8883 152.063 47.8278C152.173 47.7618 152.228 47.6601 152.228 47.5198C152.228 47.3961 152.173 47.2998 152.063 47.2339C151.953 47.1679 151.79 47.1074 151.579 47.0469C151.364 46.9891 151.188 46.9314 151.051 46.8709C150.911 46.8049 150.792 46.7141 150.699 46.5959C150.603 46.4804 150.556 46.3264 150.556 46.1339C150.556 45.9662 150.603 45.8204 150.699 45.694C150.792 45.562 150.922 45.463 151.084 45.397C151.243 45.3255 151.417 45.287 151.601 45.287C151.782 45.287 151.964 45.32 152.14 45.386C152.321 45.452 152.47 45.5565 152.58 45.694C152.624 45.7462 152.646 45.8012 152.646 45.8589C152.646 45.9194 152.615 45.9772 152.558 46.0349C152.519 46.0652 152.472 46.0789 152.415 46.0789C152.349 46.0789 152.294 46.0569 152.25 46.0129C152.175 45.9249 152.079 45.8589 151.964 45.815C151.845 45.7655 151.716 45.738 151.579 45.738C151.439 45.738 151.318 45.7682 151.216 45.8259C151.12 45.8782 151.073 45.9744 151.073 46.1119C151.073 46.2439 151.128 46.3429 151.238 46.4089C151.348 46.4749 151.518 46.5382 151.755 46.5959C151.953 46.6481 152.118 46.7031 152.25 46.7609C152.382 46.8214 152.492 46.9121 152.58 47.0359C152.668 47.1541 152.712 47.3081 152.712 47.4978C152.712 47.6738 152.659 47.8278 152.558 47.9598C152.461 48.0863 152.329 48.1853 152.162 48.2568C151.999 48.3228 151.826 48.3558 151.645 48.3558C151.408 48.3558 151.188 48.3145 150.985 48.2348C150.787 48.155 150.616 48.023 150.479 47.8388Z" fill="black"/>
</g>
</g>
</g>
</svg>
