<svg width="518" height="156" viewBox="0 0 518 156" fill="none" xmlns="http://www.w3.org/2000/svg">
<path d="M35.0743 53.9579C31.2942 53.9579 28.0491 55.356 25.3391 58.1351C22.6205 60.9227 21.2655 64.28 21.2655 68.2155C21.2655 72.2028 22.6205 75.5945 25.3391 78.3995C28.0491 81.1871 31.2942 82.5766 35.0743 82.5766C36.8867 82.5766 38.6042 82.3609 40.2181 81.9207C41.8493 81.4633 43.0489 81.0059 43.8084 80.5398L44.8095 79.8494L51.6103 93.7617C51.0752 94.1587 50.3417 94.642 49.4009 95.2117C48.4516 95.764 46.3026 96.5235 42.9453 97.4901C39.5794 98.474 35.9805 98.9745 32.1399 98.9745C23.6217 98.9745 16.1304 95.9884 9.66615 89.9988C3.21917 83.992 0 76.8028 0 68.4226C0 59.982 3.21917 52.7324 9.66615 46.6738C16.1304 40.5979 23.6217 37.56 32.1399 37.56C35.9805 37.56 39.5277 38.0088 42.7727 38.9063C46.0178 39.8039 48.3135 40.7187 49.6771 41.6336L51.6103 42.9799L44.8095 56.6851C42.3239 54.8727 39.0789 53.9579 35.0743 53.9579Z" fill="black"/>
<path d="M49.1172 97.283V39.2515H69.1399V47.6059H69.3471C69.5024 47.3124 69.7441 46.9413 70.072 46.5012C70.4172 46.0437 71.1508 45.2497 72.2814 44.1191C73.4293 42.9972 74.6376 41.9788 75.9062 41.0812C77.1922 40.1664 78.8492 39.3465 80.8774 38.6301C82.9228 37.9224 85.0028 37.56 87.1259 37.56C89.3094 37.56 91.4497 37.862 93.547 38.4575C95.6614 39.0617 97.2149 39.6572 98.2074 40.2527L99.7954 41.1848L91.4066 58.1351C88.921 56.0206 85.4516 54.959 81.0155 54.959C78.5989 54.959 76.5104 55.4941 74.767 56.547C73.0409 57.6086 71.8154 58.8945 71.1077 60.4135C70.3913 61.9152 69.8821 63.1925 69.5887 64.2454C69.2866 65.307 69.1399 66.1355 69.1399 66.731V97.283H49.1172Z" fill="black"/>
<path d="M153.502 71.0463H111.42C111.42 75.1199 112.74 78.1405 115.39 80.091C118.031 82.0502 120.896 83.0254 123.986 83.0254C127.231 83.0254 129.794 82.6025 131.684 81.7481C133.565 80.8764 135.723 79.1503 138.14 76.5698L152.604 83.8194C146.572 93.9257 136.534 98.9745 122.501 98.9745C113.75 98.9745 106.25 95.9884 99.9929 89.9988C93.7271 83.992 90.6029 76.7683 90.6029 68.319C90.6029 59.8784 93.7271 52.6374 99.9929 46.6047C106.25 40.5806 113.75 37.56 122.501 37.56C131.701 37.56 139.193 40.2182 144.975 45.5345C150.749 50.8509 153.64 58.4458 153.64 68.319C153.64 69.6827 153.588 70.5889 153.502 71.0463ZM112.007 59.9647H134.066C133.6 56.9527 132.409 54.6397 130.476 53.0258C128.56 51.3946 126.1 50.5747 123.088 50.5747C119.774 50.5747 117.124 51.4378 115.148 53.1639C113.189 54.89 112.145 57.1598 112.007 59.9647Z" fill="black"/>
<path d="M156.325 90.1024C150.888 84.1905 148.178 76.9409 148.178 68.3536C148.178 59.749 150.888 52.4648 156.325 46.5012C161.753 40.5461 168.658 37.56 177.038 37.56C184.719 37.56 191.063 39.9679 196.06 44.7751V39.2515H216.082V97.283H196.267V90.7238H196.06C191.063 96.2301 184.719 98.9745 177.038 98.9745C168.658 98.9745 161.753 96.0229 156.325 90.1024ZM173.344 58.4803C170.738 61.0349 169.443 64.3145 169.443 68.319C169.443 72.3236 170.686 75.5945 173.172 78.1233C175.674 80.6348 178.971 81.8862 183.045 81.8862C186.955 81.8862 190.174 80.6089 192.711 78.0542C195.24 75.4823 196.508 72.2373 196.508 68.319C196.508 64.3145 195.205 61.0349 192.608 58.4803C190.001 55.9257 186.816 54.6483 183.045 54.6483C179.196 54.6483 175.968 55.9257 173.344 58.4803Z" fill="black"/>
<path d="M222.397 39.2515V17.6407H242.42V39.2515H254.641V54.5102H242.42V72.9449C242.42 78.3131 243.922 80.9885 246.942 80.9885C247.702 80.9885 248.496 80.8418 249.324 80.5397C250.153 80.2463 250.791 79.9442 251.258 79.6422L251.913 79.1934L256.885 95.3497C252.604 97.7662 247.702 98.9745 242.178 98.9745C238.424 98.9745 235.188 98.3186 232.478 97.0067C229.759 95.6776 227.696 93.8997 226.298 91.6903C224.891 89.4637 223.89 87.1248 223.295 84.6824C222.691 82.2227 222.397 79.599 222.397 76.8114V54.5102H214.008V39.2515H222.397Z" fill="black"/>
<path d="M256.996 90.1024C251.558 84.1905 248.848 76.9409 248.848 68.3536C248.848 59.749 251.558 52.4648 256.996 46.5012C262.424 40.5461 269.329 37.56 277.709 37.56C285.39 37.56 291.733 39.9679 296.73 44.7751V39.2515H316.753V97.283H296.937V90.7238H296.73C291.733 96.2301 285.39 98.9745 277.709 98.9745C269.329 98.9745 262.424 96.0229 256.996 90.1024ZM274.015 58.4803C271.408 61.0349 270.114 64.3145 270.114 68.319C270.114 72.3236 271.357 75.5945 273.842 78.1233C276.345 80.6348 279.642 81.8862 283.716 81.8862C287.625 81.8862 290.844 80.6089 293.382 78.0542C295.91 75.4823 297.179 72.2373 297.179 68.319C297.179 64.3145 295.876 61.0349 293.278 58.4803C290.672 55.9257 287.487 54.6483 283.716 54.6483C279.866 54.6483 276.639 55.9257 274.015 58.4803Z" fill="black"/>
<path d="M319.685 97.2829V0H339.707V97.2829H319.685Z" fill="black"/>
<path d="M386.626 39.2515H409.721L364.117 126.696H341.057L361.079 88.2382L333.565 39.2515H356.661L372.851 69.0094L386.626 39.2515Z" fill="black"/>
<path d="M428.814 37.56C432.146 37.56 435.425 37.9397 438.653 38.6992C441.898 39.4414 444.315 40.1836 445.903 40.9431L448.285 42.0823L441.726 55.2007C437.186 52.7842 432.888 51.5759 428.814 51.5759C426.553 51.5759 424.957 51.8348 424.016 52.3354C423.067 52.8187 422.6 53.7421 422.6 55.0971C422.6 55.3992 422.635 55.7013 422.704 55.9947C422.79 56.2968 422.946 56.5816 423.153 56.8577C423.377 57.1167 423.584 57.3324 423.774 57.5137C423.981 57.7035 424.301 57.9107 424.741 58.1351C425.198 58.3681 425.552 58.5407 425.811 58.6529C426.087 58.7737 426.519 58.9463 427.123 59.1707C427.718 59.3778 428.167 59.5418 428.469 59.654C428.789 59.7749 429.306 59.9475 430.023 60.1719C430.73 60.4049 431.274 60.5516 431.645 60.6206C433.993 61.3111 436.03 62.0706 437.756 62.8991C439.499 63.7276 441.329 64.8582 443.245 66.2822C445.178 67.7149 446.671 69.5187 447.732 71.7022C448.785 73.8943 449.32 76.3885 449.32 79.1935C449.32 92.3809 440.146 98.9745 421.806 98.9745C417.664 98.9745 413.728 98.3359 410 97.0758C406.272 95.7899 403.562 94.504 401.887 93.2094L399.402 91.1726L407.549 77.5019C408.17 78.0111 408.964 78.6325 409.931 79.3661C410.915 80.0824 412.693 81.0576 415.247 82.3004C417.819 83.5432 420.046 84.1646 421.91 84.1646C426.07 84.1646 428.159 82.7751 428.159 79.9875C428.159 78.7015 427.623 77.7004 426.571 76.9841C425.509 76.2764 423.714 75.4651 421.185 74.5675C418.648 73.6527 416.671 72.8069 415.247 72.0474C411.631 70.166 408.766 68.0342 406.651 65.6608C404.528 63.2961 403.475 60.1373 403.475 56.2018C403.475 50.3331 405.754 45.7676 410.311 42.4966C414.885 39.2084 421.056 37.56 428.814 37.56Z" fill="black"/>
<path d="M450.531 6.9044C452.878 4.55691 455.674 3.38316 458.92 3.38316C462.165 3.38316 464.944 4.55691 467.274 6.9044C469.621 9.23464 470.795 12.0137 470.795 15.2587C470.795 18.5038 469.621 21.3001 467.274 23.6476C464.944 25.9778 462.165 27.1343 458.92 27.1343C455.674 27.1343 452.878 25.9778 450.531 23.6476C448.2 21.3001 447.044 18.5038 447.044 15.2587C447.044 12.0137 448.2 9.23464 450.531 6.9044ZM448.632 39.2515V97.2829H468.655V39.2515H448.632Z" fill="black"/>
<path d="M497.359 37.56C500.69 37.56 503.97 37.9397 507.198 38.6992C510.443 39.4414 512.859 40.1836 514.447 40.9431L516.829 42.0823L510.27 55.2007C505.73 52.7842 501.432 51.5759 497.359 51.5759C495.098 51.5759 493.501 51.8348 492.56 52.3354C491.611 52.8187 491.145 53.7421 491.145 55.0971C491.145 55.3992 491.179 55.7013 491.248 55.9947C491.335 56.2968 491.49 56.5816 491.697 56.8577C491.922 57.1167 492.129 57.3324 492.319 57.5137C492.526 57.7035 492.845 57.9107 493.285 58.1351C493.743 58.3681 494.096 58.5407 494.355 58.6529C494.632 58.7737 495.063 58.9463 495.667 59.1707C496.263 59.3778 496.711 59.5418 497.014 59.654C497.333 59.7749 497.851 59.9475 498.567 60.1719C499.275 60.4049 499.818 60.5516 500.19 60.6206C502.537 61.3111 504.574 62.0706 506.3 62.8991C508.043 63.7276 509.873 64.8582 511.789 66.2822C513.722 67.7149 515.215 69.5187 516.277 71.7022C517.33 73.8943 517.865 76.3885 517.865 79.1935C517.865 92.3809 508.691 98.9745 490.351 98.9745C486.208 98.9745 482.273 98.3359 478.544 97.0758C474.816 95.7899 472.106 94.504 470.432 93.2094L467.946 91.1726L476.093 77.5019C476.715 78.0111 477.509 78.6325 478.475 79.3661C479.459 80.0824 481.237 81.0576 483.792 82.3004C486.364 83.5432 488.59 84.1646 490.454 84.1646C494.614 84.1646 496.703 82.7751 496.703 79.9875C496.703 78.7015 496.168 77.7004 495.115 76.9841C494.053 76.2764 492.258 75.4651 489.729 74.5675C487.192 73.6527 485.216 72.8069 483.792 72.0474C480.175 70.166 477.31 68.0342 475.196 65.6608C473.073 63.2961 472.02 60.1373 472.02 56.2018C472.02 50.3331 474.298 45.7676 478.855 42.4966C483.429 39.2084 489.6 37.56 497.359 37.56Z" fill="black"/>
<path d="M48.2085 139.202C48.4588 139.202 48.6573 139.289 48.7954 139.444C48.9507 139.608 49.037 139.815 49.037 140.065V146.832C49.037 147.781 48.8299 148.618 48.4157 149.352C48.0014 150.094 47.4231 150.681 46.6896 151.112C45.9732 151.527 45.1706 151.734 44.273 151.734C43.3496 151.734 42.521 151.527 41.7874 151.112C41.0452 150.681 40.4756 150.094 40.0613 149.352C39.6471 148.618 39.4399 147.781 39.4399 146.832V140.065C39.4399 139.815 39.5176 139.608 39.6816 139.444C39.8628 139.289 40.0786 139.202 40.3375 139.202C40.5619 139.202 40.7604 139.289 40.9244 139.444C41.1056 139.608 41.2006 139.815 41.2006 140.065V146.832C41.2006 147.453 41.3386 148.005 41.6148 148.489C41.891 148.972 42.2535 149.352 42.7195 149.628C43.2028 149.904 43.7207 150.042 44.273 150.042C44.8254 150.042 45.3432 149.904 45.8265 149.628C46.3098 149.352 46.6896 148.972 46.9657 148.489C47.2592 148.005 47.4145 147.453 47.4145 146.832V140.065C47.4145 139.815 47.4836 139.608 47.6216 139.444C47.777 139.289 47.9755 139.202 48.2085 139.202Z" fill="black"/>
<path d="M64.1122 142.137C66.2267 142.137 67.2882 143.405 67.2882 145.934V150.733C67.2882 150.991 67.2019 151.199 67.0466 151.354C66.8826 151.518 66.6841 151.596 66.4597 151.596C66.2008 151.596 65.9936 151.518 65.8383 151.354C65.7002 151.199 65.6312 150.991 65.6312 150.733V145.969C65.6312 145.261 65.4672 144.708 65.1479 144.311C64.8199 143.897 64.3021 143.69 63.5944 143.69C63.1111 143.69 62.6709 143.794 62.2825 144.001C61.9114 144.208 61.6094 144.484 61.385 144.829C61.1778 145.175 61.0743 145.554 61.0743 145.969V150.733C61.0743 150.991 60.988 151.199 60.8326 151.354C60.6686 151.518 60.4615 151.596 60.2112 151.596C59.9782 151.596 59.7797 151.518 59.6243 151.354C59.4604 151.199 59.3827 150.991 59.3827 150.733V143.172C59.3827 142.948 59.4604 142.749 59.6243 142.585C59.7797 142.43 59.9782 142.344 60.2112 142.344C60.4615 142.344 60.6686 142.43 60.8326 142.585C60.988 142.749 61.0743 142.948 61.0743 143.172V143.794C61.3677 143.336 61.7992 142.948 62.3516 142.62C62.9039 142.301 63.4908 142.137 64.1122 142.137Z" fill="black"/>
<path d="M79.259 150.733C79.259 150.991 79.1727 151.199 79.0173 151.354C78.8533 151.518 78.6548 151.596 78.4304 151.596C78.1715 151.596 77.9644 151.518 77.809 151.354C77.6451 151.199 77.5674 150.991 77.5674 150.733V139.375C77.5674 139.125 77.6451 138.917 77.809 138.753C77.9903 138.598 78.1974 138.512 78.4304 138.512C78.6548 138.512 78.8533 138.598 79.0173 138.753C79.1727 138.917 79.259 139.125 79.259 139.375V150.733Z" fill="black"/>
<path d="M97.684 146.624C97.6581 146.832 97.5632 147.021 97.4079 147.177C97.2439 147.315 97.0454 147.384 96.821 147.384H90.607C90.6933 148.238 91.0213 148.929 91.5736 149.455C92.1433 149.964 92.851 150.215 93.6795 150.215C94.2491 150.215 94.7151 150.137 95.0604 149.973C95.4056 149.818 95.7163 149.593 95.9925 149.317C96.1737 149.231 96.3463 149.179 96.5103 149.179C96.7174 149.179 96.89 149.248 97.0281 149.386C97.1662 149.524 97.2352 149.688 97.2352 149.87C97.2352 150.128 97.1058 150.353 96.8555 150.56C96.5103 150.905 96.0442 151.199 95.4746 151.423C94.9223 151.647 94.3527 151.768 93.7831 151.768C92.8164 151.768 91.962 151.578 91.2284 151.181C90.5121 150.767 89.9597 150.206 89.5714 149.49C89.1744 148.782 88.9845 147.962 88.9845 147.039C88.9845 146.055 89.1744 145.192 89.5714 144.45C89.9856 143.69 90.5207 143.12 91.1939 142.723C91.8585 142.335 92.5748 142.137 93.3343 142.137C94.0937 142.137 94.8014 142.335 95.4746 142.723C96.1392 143.095 96.6656 143.621 97.0626 144.311C97.451 145.002 97.6581 145.779 97.684 146.624ZM93.3343 143.69C92.687 143.69 92.126 143.88 91.6427 144.242C91.1594 144.614 90.8314 145.192 90.6761 145.969H95.8889V145.83C95.8371 145.192 95.5609 144.674 95.0604 144.277C94.5512 143.889 93.9729 143.69 93.3343 143.69Z" fill="black"/>
<path d="M114.773 142.206C115.024 142.206 115.231 142.292 115.395 142.447C115.55 142.611 115.636 142.818 115.636 143.069V150.733C115.636 150.991 115.55 151.199 115.395 151.354C115.231 151.518 115.024 151.596 114.773 151.596C114.514 151.596 114.307 151.518 114.152 151.354C114.014 151.199 113.945 150.991 113.945 150.733V150.284C113.643 150.698 113.22 151.061 112.667 151.354C112.132 151.63 111.571 151.768 110.976 151.768C110.165 151.768 109.431 151.561 108.767 151.147C108.119 150.733 107.61 150.163 107.248 149.421C106.876 148.687 106.695 147.859 106.695 146.935C106.695 146.02 106.876 145.192 107.248 144.45C107.61 143.716 108.119 143.155 108.767 142.758C109.431 142.344 110.147 142.137 110.907 142.137C111.528 142.137 112.098 142.266 112.633 142.516C113.185 142.775 113.617 143.103 113.945 143.517V143.069C113.945 142.818 114.014 142.611 114.152 142.447C114.307 142.292 114.514 142.206 114.773 142.206ZM111.183 150.215C111.735 150.215 112.219 150.077 112.633 149.8C113.064 149.507 113.401 149.11 113.634 148.627C113.884 148.126 114.014 147.557 114.014 146.935C114.014 146.34 113.884 145.796 113.634 145.313C113.401 144.812 113.064 144.415 112.633 144.139C112.219 143.845 111.735 143.69 111.183 143.69C110.605 143.69 110.096 143.828 109.664 144.104C109.25 144.381 108.913 144.778 108.663 145.278C108.43 145.761 108.318 146.314 108.318 146.935C108.318 147.557 108.43 148.126 108.663 148.627C108.913 149.11 109.25 149.507 109.664 149.8C110.096 150.077 110.605 150.215 111.183 150.215Z" fill="black"/>
<path d="M125.218 150.146C125.097 149.99 125.046 149.826 125.046 149.662C125.046 149.438 125.166 149.239 125.425 149.076C125.538 148.989 125.676 148.937 125.84 148.937C126.047 148.937 126.237 149.032 126.427 149.214C126.772 149.611 127.134 149.904 127.531 150.111C127.945 150.318 128.437 150.422 129.016 150.422C129.473 150.405 129.861 150.301 130.189 150.111C130.535 149.904 130.707 149.585 130.707 149.145C130.707 148.756 130.535 148.454 130.189 148.247C129.844 148.04 129.335 147.85 128.67 147.66C127.997 147.479 127.445 147.298 127.013 147.108C126.573 146.901 126.202 146.616 125.909 146.245C125.607 145.882 125.46 145.399 125.46 144.795C125.46 144.268 125.607 143.811 125.909 143.414C126.202 143 126.608 142.689 127.117 142.482C127.618 142.257 128.161 142.137 128.74 142.137C129.309 142.137 129.879 142.24 130.431 142.447C131.001 142.654 131.467 142.982 131.812 143.414C131.95 143.578 132.019 143.75 132.019 143.932C132.019 144.122 131.924 144.303 131.743 144.484C131.622 144.579 131.475 144.622 131.294 144.622C131.087 144.622 130.914 144.553 130.776 144.415C130.543 144.139 130.241 143.932 129.879 143.794C129.508 143.638 129.102 143.552 128.67 143.552C128.23 143.552 127.851 143.647 127.531 143.828C127.229 143.992 127.082 144.294 127.082 144.726C127.082 145.14 127.255 145.451 127.6 145.658C127.945 145.865 128.481 146.063 129.223 146.245C129.844 146.409 130.362 146.581 130.776 146.763C131.191 146.952 131.536 147.237 131.812 147.626C132.088 147.997 132.226 148.48 132.226 149.076C132.226 149.628 132.062 150.111 131.743 150.525C131.441 150.922 131.027 151.233 130.5 151.458C129.991 151.665 129.447 151.768 128.878 151.768C128.135 151.768 127.445 151.639 126.806 151.388C126.185 151.138 125.65 150.724 125.218 150.146Z" fill="black"/>
<path d="M146.429 142.171C148.5 142.171 149.536 143.466 149.536 146.038V150.733C149.536 150.991 149.45 151.199 149.294 151.354C149.13 151.518 148.932 151.596 148.707 151.596C148.448 151.596 148.241 151.518 148.086 151.354C147.922 151.199 147.844 150.991 147.844 150.733V146.038C147.844 144.501 147.197 143.725 145.911 143.725C145.221 143.725 144.642 143.958 144.185 144.415C143.719 144.855 143.495 145.399 143.495 146.038V150.733C143.495 150.991 143.408 151.199 143.253 151.354C143.089 151.518 142.882 151.596 142.632 151.596C142.398 151.596 142.2 151.518 142.045 151.354C141.881 151.199 141.803 150.991 141.803 150.733V139.375C141.803 139.125 141.881 138.917 142.045 138.753C142.2 138.598 142.398 138.512 142.632 138.512C142.882 138.512 143.089 138.598 143.253 138.753C143.408 138.917 143.495 139.125 143.495 139.375V143.828C143.788 143.371 144.202 142.982 144.737 142.654C145.264 142.335 145.825 142.171 146.429 142.171Z" fill="black"/>
<path d="M161.261 150.733C161.261 150.991 161.174 151.199 161.019 151.354C160.881 151.518 160.682 151.596 160.432 151.596C160.199 151.596 160.001 151.518 159.845 151.354C159.681 151.199 159.604 150.991 159.604 150.733V143.103C159.604 142.853 159.681 142.646 159.845 142.482C160.001 142.326 160.199 142.24 160.432 142.24C160.682 142.24 160.881 142.326 161.019 142.482C161.174 142.646 161.261 142.853 161.261 143.103V150.733ZM160.432 141.066C160.087 141.066 159.828 141.015 159.673 140.894C159.535 140.782 159.466 140.583 159.466 140.307V140.031C159.466 139.737 159.543 139.53 159.707 139.409C159.863 139.297 160.104 139.237 160.432 139.237C160.777 139.237 161.019 139.306 161.157 139.444C161.295 139.565 161.364 139.755 161.364 140.031V140.307C161.364 140.583 161.278 140.782 161.123 140.894C160.985 141.015 160.752 141.066 160.432 141.066Z" fill="black"/>
<path d="M176.05 142.137C178.165 142.137 179.226 143.405 179.226 145.934V150.733C179.226 150.991 179.14 151.199 178.985 151.354C178.821 151.518 178.622 151.596 178.398 151.596C178.139 151.596 177.932 151.518 177.776 151.354C177.638 151.199 177.569 150.991 177.569 150.733V145.969C177.569 145.261 177.405 144.708 177.086 144.311C176.758 143.897 176.24 143.69 175.532 143.69C175.049 143.69 174.609 143.794 174.221 144.001C173.85 144.208 173.547 144.484 173.323 144.829C173.116 145.175 173.012 145.554 173.012 145.969V150.733C173.012 150.991 172.926 151.199 172.771 151.354C172.607 151.518 172.4 151.596 172.149 151.596C171.916 151.596 171.718 151.518 171.562 151.354C171.398 151.199 171.321 150.991 171.321 150.733V143.172C171.321 142.948 171.398 142.749 171.562 142.585C171.718 142.43 171.916 142.344 172.149 142.344C172.4 142.344 172.607 142.43 172.771 142.585C172.926 142.749 173.012 142.948 173.012 143.172V143.794C173.306 143.336 173.737 142.948 174.29 142.62C174.842 142.301 175.429 142.137 176.05 142.137Z" fill="black"/>
<path d="M197.135 142.206C197.359 142.206 197.558 142.292 197.722 142.447C197.877 142.611 197.963 142.818 197.963 143.069V150.836C197.963 151.803 197.756 152.605 197.342 153.253C196.945 153.891 196.393 154.366 195.685 154.668C194.994 154.962 194.218 155.117 193.372 155.117C192.889 155.117 192.319 155.031 191.68 154.875C191.059 154.711 190.662 154.539 190.507 154.357C190.135 154.168 189.954 153.943 189.954 153.667C189.954 153.598 189.971 153.503 190.023 153.391C190.135 153.089 190.351 152.942 190.679 152.942C190.817 152.942 190.973 152.976 191.162 153.046C192.103 153.408 192.837 153.598 193.372 153.598C194.313 153.598 195.038 153.365 195.547 152.907C196.047 152.441 196.306 151.82 196.306 151.043V150.077C196.047 150.543 195.624 150.94 195.029 151.285C194.451 151.604 193.838 151.768 193.199 151.768C192.388 151.768 191.646 151.561 190.955 151.147C190.282 150.733 189.756 150.163 189.367 149.421C188.996 148.687 188.815 147.859 188.815 146.935C188.815 146.02 188.996 145.192 189.367 144.45C189.756 143.716 190.282 143.155 190.955 142.758C191.62 142.344 192.353 142.137 193.165 142.137C193.803 142.137 194.408 142.292 194.96 142.585C195.529 142.862 195.978 143.224 196.306 143.656V143.069C196.306 142.818 196.375 142.611 196.513 142.447C196.669 142.292 196.876 142.206 197.135 142.206ZM193.406 150.215C193.976 150.215 194.485 150.077 194.925 149.8C195.383 149.524 195.737 149.136 195.996 148.627C196.246 148.126 196.375 147.557 196.375 146.935C196.375 146.314 196.246 145.761 195.996 145.278C195.737 144.778 195.383 144.381 194.925 144.104C194.485 143.828 193.976 143.69 193.406 143.69C192.828 143.69 192.31 143.828 191.853 144.104C191.413 144.381 191.067 144.778 190.817 145.278C190.558 145.787 190.437 146.34 190.437 146.935C190.437 147.557 190.558 148.126 190.817 148.627C191.067 149.11 191.413 149.507 191.853 149.8C192.31 150.077 192.828 150.215 193.406 150.215Z" fill="black"/>
<path d="M229.662 139.962C229.938 140.1 230.076 140.333 230.076 140.652C230.076 140.859 230.007 141.058 229.869 141.239C229.731 141.429 229.533 141.515 229.282 141.515C229.118 141.515 228.954 141.481 228.799 141.412C228.083 140.997 227.297 140.79 226.452 140.79C225.554 140.79 224.769 140.989 224.104 141.377C223.431 141.748 222.904 142.292 222.516 143C222.145 143.69 221.964 144.501 221.964 145.416C221.964 146.383 222.154 147.229 222.551 147.936C222.939 148.653 223.465 149.196 224.139 149.559C224.829 149.93 225.597 150.111 226.452 150.111C227.323 150.111 228.109 149.904 228.799 149.49C228.954 149.403 229.118 149.352 229.282 149.352C229.533 149.352 229.74 149.455 229.904 149.662C230.042 149.852 230.111 150.042 230.111 150.249C230.111 150.387 230.059 150.517 229.973 150.629C229.904 150.75 229.8 150.853 229.662 150.94C229.222 151.199 228.713 151.406 228.143 151.561C227.565 151.699 227.004 151.768 226.452 151.768C225.295 151.768 224.242 151.518 223.276 151.009C222.326 150.508 221.567 149.766 220.997 148.799C220.419 147.833 220.134 146.711 220.134 145.416C220.134 144.225 220.41 143.155 220.963 142.206C221.515 141.239 222.257 140.48 223.206 139.927C224.173 139.375 225.252 139.099 226.452 139.099C227.574 139.099 228.644 139.392 229.662 139.962Z" fill="black"/>
<path d="M244.156 142.137C244.449 142.137 244.717 142.223 244.95 142.378C245.174 142.516 245.295 142.715 245.295 142.965C245.295 143.241 245.209 143.466 245.054 143.621C244.915 143.759 244.743 143.828 244.536 143.828C244.415 143.828 244.26 143.794 244.052 143.725C243.793 143.638 243.604 143.587 243.466 143.587C243.094 143.587 242.741 143.716 242.395 143.966C242.05 144.225 241.757 144.57 241.532 145.002C241.325 145.442 241.222 145.934 241.222 146.486V150.733C241.222 150.991 241.135 151.199 240.98 151.354C240.816 151.518 240.609 151.596 240.359 151.596C240.126 151.596 239.927 151.518 239.772 151.354C239.608 151.199 239.53 150.991 239.53 150.733V143.172C239.53 142.948 239.608 142.749 239.772 142.585C239.927 142.43 240.126 142.344 240.359 142.344C240.609 142.344 240.816 142.43 240.98 142.585C241.135 142.749 241.222 142.948 241.222 143.172V144.07C241.472 143.5 241.852 143.034 242.361 142.689C242.887 142.326 243.483 142.137 244.156 142.137Z" fill="black"/>
<path d="M262.613 146.624C262.587 146.832 262.492 147.021 262.337 147.177C262.173 147.315 261.974 147.384 261.75 147.384H255.536C255.622 148.238 255.95 148.929 256.502 149.455C257.072 149.964 257.78 150.215 258.608 150.215C259.178 150.215 259.644 150.137 259.989 149.973C260.334 149.818 260.645 149.593 260.921 149.317C261.103 149.231 261.275 149.179 261.439 149.179C261.646 149.179 261.819 149.248 261.957 149.386C262.095 149.524 262.164 149.688 262.164 149.87C262.164 150.128 262.035 150.353 261.784 150.56C261.439 150.905 260.973 151.199 260.403 151.423C259.851 151.647 259.281 151.768 258.712 151.768C257.745 151.768 256.891 151.578 256.157 151.181C255.441 150.767 254.889 150.206 254.5 149.49C254.103 148.782 253.913 147.962 253.913 147.039C253.913 146.055 254.103 145.192 254.5 144.45C254.914 143.69 255.45 143.12 256.123 142.723C256.787 142.335 257.504 142.137 258.263 142.137C259.023 142.137 259.73 142.335 260.403 142.723C261.068 143.095 261.594 143.621 261.991 144.311C262.38 145.002 262.587 145.779 262.613 146.624ZM258.263 143.69C257.616 143.69 257.055 143.88 256.572 144.242C256.088 144.614 255.76 145.192 255.605 145.969H260.818V145.83C260.766 145.192 260.49 144.674 259.989 144.277C259.48 143.889 258.902 143.69 258.263 143.69Z" fill="black"/>
<path d="M279.702 142.206C279.952 142.206 280.16 142.292 280.324 142.447C280.479 142.611 280.565 142.818 280.565 143.069V150.733C280.565 150.991 280.479 151.199 280.324 151.354C280.16 151.518 279.952 151.596 279.702 151.596C279.443 151.596 279.236 151.518 279.081 151.354C278.943 151.199 278.874 150.991 278.874 150.733V150.284C278.572 150.698 278.149 151.061 277.596 151.354C277.061 151.63 276.5 151.768 275.905 151.768C275.093 151.768 274.36 151.561 273.695 151.147C273.048 150.733 272.539 150.163 272.176 149.421C271.805 148.687 271.624 147.859 271.624 146.935C271.624 146.02 271.805 145.192 272.176 144.45C272.539 143.716 273.048 143.155 273.695 142.758C274.36 142.344 275.076 142.137 275.836 142.137C276.457 142.137 277.027 142.266 277.562 142.516C278.114 142.775 278.546 143.103 278.874 143.517V143.069C278.874 142.818 278.943 142.611 279.081 142.447C279.236 142.292 279.443 142.206 279.702 142.206ZM276.112 150.215C276.664 150.215 277.148 150.077 277.562 149.8C277.993 149.507 278.33 149.11 278.563 148.627C278.813 148.126 278.943 147.557 278.943 146.935C278.943 146.34 278.813 145.796 278.563 145.313C278.33 144.812 277.993 144.415 277.562 144.139C277.148 143.845 276.664 143.69 276.112 143.69C275.534 143.69 275.024 143.828 274.593 144.104C274.179 144.381 273.842 144.778 273.592 145.278C273.359 145.761 273.247 146.314 273.247 146.935C273.247 147.557 273.359 148.126 273.592 148.627C273.842 149.11 274.179 149.507 274.593 149.8C275.024 150.077 275.534 150.215 276.112 150.215Z" fill="black"/>
<path d="M293.185 143.966V149.248C293.185 149.852 293.444 150.146 293.979 150.146C294.065 150.146 294.186 150.128 294.324 150.077C294.462 150.034 294.574 150.008 294.669 150.008C294.807 150.008 294.92 150.077 295.015 150.215C295.127 150.336 295.187 150.491 295.187 150.698C295.187 150.957 295.049 151.173 294.773 151.354C294.497 151.518 294.169 151.596 293.806 151.596C293.435 151.596 293.081 151.561 292.736 151.492C292.408 151.406 292.123 151.199 291.873 150.871C291.614 150.525 291.493 150.008 291.493 149.317V143.966H290.492C290.259 143.966 290.061 143.897 289.905 143.759C289.767 143.621 289.698 143.44 289.698 143.207C289.698 142.982 289.767 142.793 289.905 142.654C290.061 142.516 290.259 142.447 290.492 142.447H291.493V140.963C291.493 140.738 291.571 140.54 291.735 140.376C291.89 140.195 292.098 140.1 292.356 140.1C292.581 140.1 292.779 140.195 292.943 140.376C293.099 140.54 293.185 140.738 293.185 140.963V142.447H294.669C294.877 142.447 295.049 142.534 295.187 142.689C295.343 142.827 295.429 143 295.429 143.207C295.429 143.44 295.343 143.621 295.187 143.759C295.049 143.897 294.877 143.966 294.669 143.966H293.185Z" fill="black"/>
<path d="M306.605 150.733C306.605 150.991 306.519 151.199 306.364 151.354C306.226 151.518 306.027 151.596 305.777 151.596C305.544 151.596 305.345 151.518 305.19 151.354C305.026 151.199 304.948 150.991 304.948 150.733V143.103C304.948 142.853 305.026 142.646 305.19 142.482C305.345 142.326 305.544 142.24 305.777 142.24C306.027 142.24 306.226 142.326 306.364 142.482C306.519 142.646 306.605 142.853 306.605 143.103V150.733ZM305.777 141.066C305.432 141.066 305.173 141.015 305.017 140.894C304.879 140.782 304.81 140.583 304.81 140.307V140.031C304.81 139.737 304.888 139.53 305.052 139.409C305.207 139.297 305.449 139.237 305.777 139.237C306.122 139.237 306.364 139.306 306.502 139.444C306.64 139.565 306.709 139.755 306.709 140.031V140.307C306.709 140.583 306.623 140.782 306.467 140.894C306.329 141.015 306.096 141.066 305.777 141.066Z" fill="black"/>
<path d="M323.742 142.24C323.967 142.24 324.157 142.326 324.295 142.482C324.45 142.62 324.536 142.792 324.536 143C324.536 143.095 324.502 143.233 324.433 143.414L321.05 151.078C320.981 151.216 320.877 151.337 320.739 151.423C320.618 151.518 320.48 151.578 320.325 151.596C320.135 151.613 319.962 151.587 319.807 151.492C319.643 151.406 319.531 151.268 319.462 151.078L316.078 143.414C316.027 143.258 316.009 143.12 316.009 143C316.009 142.792 316.078 142.62 316.217 142.482C316.372 142.326 316.579 142.24 316.838 142.24C317.019 142.24 317.183 142.292 317.321 142.378C317.459 142.473 317.572 142.611 317.666 142.792L320.325 148.972L322.983 142.792C323.138 142.43 323.397 142.24 323.742 142.24Z" fill="black"/>
<path d="M342.134 146.624C342.108 146.832 342.014 147.021 341.858 147.177C341.694 147.315 341.496 147.384 341.271 147.384H335.057C335.144 148.238 335.472 148.929 336.024 149.455C336.594 149.964 337.301 150.215 338.13 150.215C338.699 150.215 339.165 150.137 339.511 149.973C339.856 149.818 340.167 149.593 340.443 149.317C340.624 149.231 340.797 149.179 340.961 149.179C341.168 149.179 341.34 149.248 341.478 149.386C341.617 149.524 341.686 149.688 341.686 149.87C341.686 150.128 341.556 150.353 341.306 150.56C340.961 150.905 340.495 151.199 339.925 151.423C339.373 151.647 338.803 151.768 338.233 151.768C337.267 151.768 336.412 151.578 335.679 151.181C334.962 150.767 334.41 150.206 334.022 149.49C333.625 148.782 333.435 147.962 333.435 147.039C333.435 146.055 333.625 145.192 334.022 144.45C334.436 143.69 334.971 143.12 335.644 142.723C336.309 142.335 337.025 142.137 337.785 142.137C338.544 142.137 339.252 142.335 339.925 142.723C340.589 143.095 341.116 143.621 341.513 144.311C341.901 145.002 342.108 145.779 342.134 146.624ZM337.785 143.69C337.137 143.69 336.576 143.88 336.093 144.242C335.61 144.614 335.282 145.192 335.126 145.969H340.339V145.83C340.287 145.192 340.011 144.674 339.511 144.277C339.001 143.889 338.423 143.69 337.785 143.69Z" fill="black"/>
<path d="M366.198 150.733C366.198 150.991 366.103 151.199 365.921 151.354C365.757 151.518 365.559 151.596 365.334 151.596C365.058 151.596 364.834 151.518 364.679 151.354C364.515 151.199 364.437 150.991 364.437 150.733V140.065C364.437 139.841 364.515 139.642 364.679 139.478C364.86 139.323 365.076 139.237 365.334 139.237C365.559 139.237 365.757 139.323 365.921 139.478C366.103 139.642 366.198 139.841 366.198 140.065V150.733Z" fill="black"/>
<path d="M381.279 142.137C383.393 142.137 384.455 143.405 384.455 145.934V150.733C384.455 150.991 384.369 151.199 384.213 151.354C384.049 151.518 383.851 151.596 383.626 151.596C383.368 151.596 383.16 151.518 383.005 151.354C382.867 151.199 382.798 150.991 382.798 150.733V145.969C382.798 145.261 382.634 144.708 382.315 144.311C381.987 143.897 381.469 143.69 380.761 143.69C380.278 143.69 379.838 143.794 379.449 144.001C379.078 144.208 378.776 144.484 378.552 144.829C378.345 145.175 378.241 145.554 378.241 145.969V150.733C378.241 150.991 378.155 151.199 377.999 151.354C377.835 151.518 377.628 151.596 377.378 151.596C377.145 151.596 376.946 151.518 376.791 151.354C376.627 151.199 376.549 150.991 376.549 150.733V143.172C376.549 142.948 376.627 142.749 376.791 142.585C376.946 142.43 377.145 142.344 377.378 142.344C377.628 142.344 377.835 142.43 377.999 142.585C378.155 142.749 378.241 142.948 378.241 143.172V143.794C378.534 143.336 378.966 142.948 379.518 142.62C380.071 142.301 380.658 142.137 381.279 142.137Z" fill="black"/>
<path d="M394.078 150.146C393.957 149.99 393.906 149.826 393.906 149.662C393.906 149.438 394.026 149.239 394.285 149.076C394.397 148.989 394.536 148.937 394.7 148.937C394.907 148.937 395.097 149.032 395.286 149.214C395.632 149.611 395.994 149.904 396.391 150.111C396.805 150.318 397.297 150.422 397.876 150.422C398.333 150.405 398.721 150.301 399.049 150.111C399.395 149.904 399.567 149.585 399.567 149.145C399.567 148.756 399.395 148.454 399.049 148.247C398.704 148.04 398.195 147.85 397.53 147.66C396.857 147.479 396.305 147.298 395.873 147.108C395.433 146.901 395.062 146.616 394.769 146.245C394.466 145.882 394.32 145.399 394.32 144.795C394.32 144.268 394.466 143.811 394.769 143.414C395.062 143 395.468 142.689 395.977 142.482C396.477 142.257 397.021 142.137 397.599 142.137C398.169 142.137 398.739 142.24 399.291 142.447C399.861 142.654 400.327 142.982 400.672 143.414C400.81 143.578 400.879 143.75 400.879 143.932C400.879 144.122 400.784 144.303 400.603 144.484C400.482 144.579 400.335 144.622 400.154 144.622C399.947 144.622 399.774 144.553 399.636 144.415C399.403 144.139 399.101 143.932 398.739 143.794C398.367 143.638 397.962 143.552 397.53 143.552C397.09 143.552 396.71 143.647 396.391 143.828C396.089 143.992 395.942 144.294 395.942 144.726C395.942 145.14 396.115 145.451 396.46 145.658C396.805 145.865 397.34 146.063 398.083 146.245C398.704 146.409 399.222 146.581 399.636 146.763C400.05 146.952 400.396 147.237 400.672 147.626C400.948 147.997 401.086 148.48 401.086 149.076C401.086 149.628 400.922 150.111 400.603 150.525C400.301 150.922 399.886 151.233 399.36 151.458C398.851 151.665 398.307 151.768 397.737 151.768C396.995 151.768 396.305 151.639 395.666 151.388C395.045 151.138 394.51 150.724 394.078 150.146Z" fill="black"/>
<path d="M412.251 150.733C412.251 150.991 412.165 151.199 412.009 151.354C411.871 151.518 411.673 151.596 411.422 151.596C411.189 151.596 410.991 151.518 410.836 151.354C410.672 151.199 410.594 150.991 410.594 150.733V143.103C410.594 142.853 410.672 142.646 410.836 142.482C410.991 142.326 411.189 142.24 411.422 142.24C411.673 142.24 411.871 142.326 412.009 142.482C412.165 142.646 412.251 142.853 412.251 143.103V150.733ZM411.422 141.066C411.077 141.066 410.818 141.015 410.663 140.894C410.525 140.782 410.456 140.583 410.456 140.307V140.031C410.456 139.737 410.533 139.53 410.697 139.409C410.853 139.297 411.094 139.237 411.422 139.237C411.768 139.237 412.009 139.306 412.147 139.444C412.285 139.565 412.355 139.755 412.355 140.031V140.307C412.355 140.583 412.268 140.782 412.113 140.894C411.975 141.015 411.742 141.066 411.422 141.066Z" fill="black"/>
<path d="M430.079 142.206C430.303 142.206 430.501 142.292 430.665 142.447C430.821 142.611 430.907 142.818 430.907 143.069V150.836C430.907 151.803 430.7 152.605 430.286 153.253C429.889 153.891 429.336 154.366 428.629 154.668C427.938 154.962 427.161 155.117 426.316 155.117C425.832 155.117 425.263 155.031 424.624 154.875C424.003 154.711 423.606 154.539 423.45 154.357C423.079 154.168 422.898 153.943 422.898 153.667C422.898 153.598 422.915 153.503 422.967 153.391C423.079 153.089 423.295 152.942 423.623 152.942C423.761 152.942 423.916 152.976 424.106 153.046C425.047 153.408 425.781 153.598 426.316 153.598C427.256 153.598 427.981 153.365 428.491 152.907C428.991 152.441 429.25 151.82 429.25 151.043V150.077C428.991 150.543 428.568 150.94 427.973 151.285C427.394 151.604 426.782 151.768 426.143 151.768C425.332 151.768 424.59 151.561 423.899 151.147C423.226 150.733 422.7 150.163 422.311 149.421C421.94 148.687 421.759 147.859 421.759 146.935C421.759 146.02 421.94 145.192 422.311 144.45C422.7 143.716 423.226 143.155 423.899 142.758C424.564 142.344 425.297 142.137 426.109 142.137C426.747 142.137 427.351 142.292 427.904 142.585C428.473 142.862 428.922 143.224 429.25 143.656V143.069C429.25 142.818 429.319 142.611 429.457 142.447C429.613 142.292 429.82 142.206 430.079 142.206ZM426.35 150.215C426.92 150.215 427.429 150.077 427.869 149.8C428.327 149.524 428.68 149.136 428.939 148.627C429.19 148.126 429.319 147.557 429.319 146.935C429.319 146.314 429.19 145.761 428.939 145.278C428.68 144.778 428.327 144.381 427.869 144.104C427.429 143.828 426.92 143.69 426.35 143.69C425.772 143.69 425.254 143.828 424.797 144.104C424.357 144.381 424.011 144.778 423.761 145.278C423.502 145.787 423.381 146.34 423.381 146.935C423.381 147.557 423.502 148.126 423.761 148.627C424.011 149.11 424.357 149.507 424.797 149.8C425.254 150.077 425.772 150.215 426.35 150.215Z" fill="black"/>
<path d="M445.655 142.171C447.726 142.171 448.762 143.466 448.762 146.038V150.733C448.762 150.991 448.676 151.199 448.52 151.354C448.356 151.518 448.158 151.596 447.934 151.596C447.675 151.596 447.468 151.518 447.312 151.354C447.148 151.199 447.071 150.991 447.071 150.733V146.038C447.071 144.501 446.423 143.725 445.137 143.725C444.447 143.725 443.869 143.958 443.411 144.415C442.945 144.855 442.721 145.399 442.721 146.038V150.733C442.721 150.991 442.634 151.199 442.479 151.354C442.315 151.518 442.108 151.596 441.858 151.596C441.625 151.596 441.426 151.518 441.271 151.354C441.107 151.199 441.029 150.991 441.029 150.733V139.375C441.029 139.125 441.107 138.917 441.271 138.753C441.426 138.598 441.625 138.512 441.858 138.512C442.108 138.512 442.315 138.598 442.479 138.753C442.634 138.917 442.721 139.125 442.721 139.375V143.828C443.014 143.371 443.428 142.982 443.964 142.654C444.49 142.335 445.051 142.171 445.655 142.171Z" fill="black"/>
<path d="M461.419 143.966V149.248C461.419 149.852 461.678 150.146 462.213 150.146C462.3 150.146 462.42 150.128 462.558 150.077C462.697 150.034 462.809 150.008 462.904 150.008C463.042 150.008 463.154 150.077 463.249 150.215C463.361 150.336 463.421 150.491 463.421 150.698C463.421 150.957 463.283 151.173 463.007 151.354C462.731 151.518 462.403 151.596 462.041 151.596C461.669 151.596 461.316 151.561 460.97 151.492C460.642 151.406 460.358 151.199 460.107 150.871C459.848 150.525 459.728 150.008 459.728 149.317V143.966H458.727C458.493 143.966 458.295 143.897 458.14 143.759C458.002 143.621 457.932 143.44 457.932 143.207C457.932 142.982 458.002 142.793 458.14 142.654C458.295 142.516 458.493 142.447 458.727 142.447H459.728V140.963C459.728 140.738 459.805 140.54 459.969 140.376C460.125 140.195 460.332 140.1 460.591 140.1C460.815 140.1 461.014 140.195 461.178 140.376C461.333 140.54 461.419 140.738 461.419 140.963V142.447H462.904C463.111 142.447 463.283 142.534 463.421 142.689C463.577 142.827 463.663 143 463.663 143.207C463.663 143.44 463.577 143.621 463.421 143.759C463.283 143.897 463.111 143.966 462.904 143.966H461.419Z" fill="black"/>
<path d="M472.734 150.146C472.613 149.99 472.561 149.826 472.561 149.662C472.561 149.438 472.682 149.239 472.941 149.076C473.053 148.989 473.191 148.937 473.355 148.937C473.562 148.937 473.752 149.032 473.942 149.214C474.287 149.611 474.65 149.904 475.047 150.111C475.461 150.318 475.953 150.422 476.531 150.422C476.988 150.405 477.377 150.301 477.705 150.111C478.05 149.904 478.223 149.585 478.223 149.145C478.223 148.756 478.05 148.454 477.705 148.247C477.36 148.04 476.85 147.85 476.186 147.66C475.513 147.479 474.96 147.298 474.529 147.108C474.089 146.901 473.718 146.616 473.424 146.245C473.122 145.882 472.975 145.399 472.975 144.795C472.975 144.268 473.122 143.811 473.424 143.414C473.718 143 474.123 142.689 474.632 142.482C475.133 142.257 475.677 142.137 476.255 142.137C476.824 142.137 477.394 142.24 477.946 142.447C478.516 142.654 478.982 142.982 479.327 143.414C479.465 143.578 479.534 143.75 479.534 143.932C479.534 144.122 479.44 144.303 479.258 144.484C479.137 144.579 478.991 144.622 478.81 144.622C478.602 144.622 478.43 144.553 478.292 144.415C478.059 144.139 477.757 143.932 477.394 143.794C477.023 143.638 476.617 143.552 476.186 143.552C475.746 143.552 475.366 143.647 475.047 143.828C474.745 143.992 474.598 144.294 474.598 144.726C474.598 145.14 474.77 145.451 475.116 145.658C475.461 145.865 475.996 146.063 476.738 146.245C477.36 146.409 477.877 146.581 478.292 146.763C478.706 146.952 479.051 147.237 479.327 147.626C479.604 147.997 479.742 148.48 479.742 149.076C479.742 149.628 479.578 150.111 479.258 150.525C478.956 150.922 478.542 151.233 478.016 151.458C477.506 151.665 476.963 151.768 476.393 151.768C475.651 151.768 474.96 151.639 474.322 151.388C473.7 151.138 473.165 150.724 472.734 150.146Z" fill="black"/>
</svg>
