<svg width="27" height="27" viewBox="0 0 27 27" fill="none" xmlns="http://www.w3.org/2000/svg">
<path id="Vector" fill-rule="evenodd" clip-rule="evenodd" d="M5.80933 0.423693C10.9058 -0.141231 16.0491 -0.141231 21.1456 0.423693C23.9299 0.734526 26.1747 2.92649 26.5016 5.72105C27.106 10.8889 27.106 16.1095 26.5016 21.2774C26.1747 24.0719 23.9299 26.2639 21.1471 26.5762C16.0501 27.1413 10.9063 27.1413 5.80933 26.5762C3.02504 26.2639 0.78031 24.0719 0.453351 21.2788C-0.151117 16.1105 -0.151117 10.8894 0.453351 5.72105C0.78031 2.92649 3.02504 0.734526 5.80933 0.423693ZM19.9434 9.0713L21.175 7.89395V7.63443H16.9201L13.8865 15.2L10.4381 7.63443H5.97501V7.89395L7.41187 9.62406C7.48167 9.68661 7.53571 9.76477 7.5696 9.85216C7.60349 9.93955 7.61626 10.0337 7.60687 10.127V16.9316C7.6274 17.0524 7.61925 17.1764 7.58309 17.2936C7.54693 17.4107 7.48376 17.5177 7.39867 17.606L5.78 19.5707V19.8273H10.3648V19.5693L8.74757 17.6075C8.66167 17.5193 8.59696 17.4128 8.55835 17.296C8.51974 17.1791 8.50823 17.055 8.5247 16.933V11.0477L12.5494 19.8288H13.0186L16.4744 11.0477V18.0459C16.4744 18.2321 16.4744 18.2673 16.3512 18.3904L15.1079 19.5971V19.8552H21.1442V19.5971L19.9448 18.4183C19.8927 18.3788 19.8523 18.3259 19.828 18.2652C19.8037 18.2045 19.7964 18.1383 19.807 18.0737V9.41586C19.7964 9.35132 19.8037 9.28512 19.828 9.2244C19.8523 9.16369 19.8912 9.11075 19.9434 9.0713Z" fill="black"/>
</svg>
