<svg width="28" height="27" viewBox="0 0 28 27" fill="none" xmlns="http://www.w3.org/2000/svg">
<g id="Group 27">
<path id="Vector" d="M27.9429 6.13876C27.9317 5.55954 27.8852 4.98155 27.8038 4.40797C27.7069 3.89778 27.542 3.40287 27.3138 2.9364C26.814 1.9499 26.013 1.14833 25.0268 0.648032C24.5633 0.420833 24.0716 0.256475 23.5646 0.159308C22.9867 0.0762553 22.4041 0.0289131 21.8203 0.0175509C21.5733 0.00810042 21.2533 0.00405023 21.1048 0.00405023L7.80936 0C7.66086 0 7.34089 0.00405019 7.09383 0.0135007C6.51461 0.0246611 5.93661 0.0710994 5.36304 0.152558C4.85286 0.249546 4.35794 0.414367 3.89147 0.642632C2.90504 1.14243 2.10349 1.9435 1.60311 2.92965C1.37597 3.39315 1.21162 3.88485 1.11439 4.39177C1.03096 4.96971 0.983164 5.55224 0.971279 6.13606C0.963179 6.38312 0.957778 6.70308 0.957778 6.85159L0.955078 20.1471C0.955078 20.2956 0.959128 20.6155 0.968579 20.8626C0.979739 21.4418 1.02618 22.0198 1.10764 22.5934C1.20464 23.1036 1.36946 23.5985 1.59771 24.065C2.09751 25.0514 2.89858 25.8529 3.88472 26.3533C4.34823 26.5804 4.83993 26.7448 5.34684 26.842C5.9248 26.9251 6.50734 26.9724 7.09113 26.9838C7.33819 26.9932 7.65816 26.9973 7.80666 26.9973L21.1021 27C21.2506 27 21.5706 26.996 21.8176 26.9865C22.3969 26.9753 22.9749 26.9289 23.5484 26.8474C24.0586 26.7504 24.5535 26.5856 25.02 26.3574C26.0069 25.8578 26.809 25.0567 27.3097 24.0704C27.5369 23.6069 27.7012 23.1152 27.7984 22.6082C27.8819 22.0303 27.9297 21.4478 27.9415 20.8639C27.9496 20.6169 27.955 20.2969 27.955 20.1484L27.9564 6.85429C27.9564 6.70579 27.9523 6.38582 27.9429 6.13876ZM14.7487 22.8931H14.7447C13.1376 22.8928 11.5563 22.4899 10.145 21.7212L5.04173 23.0592L6.40799 18.0734C5.35015 16.2377 4.92747 14.1043 5.20549 12.004C5.4835 9.90364 6.44668 7.95369 7.94568 6.45647C9.44469 4.95925 11.3958 3.99839 13.4964 3.72287C15.5971 3.44736 17.73 3.87257 19.5644 4.9326C21.3988 5.99262 22.8322 7.62823 23.6425 9.58583C24.4527 11.5434 24.5945 13.7137 24.0458 15.76C23.4971 17.8064 22.2886 19.6146 20.6077 20.9043C18.9268 22.1939 16.8674 22.893 14.7487 22.8931Z" fill="black"/>
<path id="Vector_2" d="M14.7522 5.2671C13.3226 5.26668 11.919 5.64927 10.6874 6.37508C9.4557 7.10089 8.44099 8.14342 7.74873 9.39424C7.05648 10.6451 6.71197 12.0585 6.75103 13.4876C6.7901 14.9167 7.2113 16.3092 7.97085 17.5203L8.16121 17.8227L7.35252 20.774L10.3807 19.9801L10.6723 20.1529C11.9051 20.883 13.3114 21.2682 14.7441 21.2681H14.7482C16.8702 21.2685 18.9055 20.4258 20.4062 18.9256C21.907 17.4253 22.7503 15.3903 22.7507 13.2683C22.7511 11.1462 21.9084 9.11096 20.4082 7.61019C18.9079 6.10943 16.8729 5.26611 14.7509 5.26575L14.7522 5.2671ZM19.4559 16.7022C19.2789 16.9944 19.0434 17.2469 18.7641 17.4437C18.4848 17.6405 18.1678 17.7773 17.8331 17.8457C17.3277 17.9324 16.809 17.9 16.3183 17.7512C15.8529 17.6062 15.3955 17.4367 14.948 17.2435C13.287 16.41 11.8713 15.159 10.8397 13.6132C10.277 12.8976 9.93541 12.0333 9.85689 11.1264C9.8504 10.752 9.92196 10.3804 10.067 10.0353C10.212 9.69008 10.4274 9.3789 10.6993 9.12154C10.7797 9.02986 10.8781 8.95579 10.9885 8.90398C11.0989 8.85217 11.2187 8.82374 11.3406 8.82047C11.4999 8.82047 11.6606 8.82047 11.801 8.82857C11.9495 8.83532 12.1466 8.77187 12.341 9.2417C12.5435 9.72232 13.0241 10.9063 13.0835 11.0265C13.1217 11.0895 13.1435 11.161 13.147 11.2345C13.1506 11.3081 13.1357 11.3813 13.1038 11.4477C13.0432 11.5921 12.9623 11.7272 12.8635 11.8487C12.742 11.9891 12.611 12.1619 12.503 12.2699C12.3815 12.3901 12.2573 12.5197 12.3964 12.76C12.7575 13.3784 13.2084 13.9398 13.7343 14.426C14.3049 14.9332 14.9596 15.3371 15.6689 15.6194C15.9092 15.7409 16.0496 15.7193 16.19 15.5587C16.3305 15.398 16.7908 14.8566 16.9515 14.6163C17.1121 14.376 17.2714 14.4165 17.4915 14.4962C17.7116 14.5758 18.8956 15.1577 19.1359 15.2792C19.3762 15.4007 19.5369 15.4588 19.5963 15.5587C19.6621 15.9454 19.6133 16.3429 19.4559 16.7022Z" fill="black"/>
</g>
</svg>
